<svg version="1.2" xmlns="http://www.w3.org/2000/svg" viewBox="0 0 642 696" width="642" height="696"><defs><clipPath clipPathUnits="userSpaceOnUse" id="cp1"><path d="m119.02 439.56c0.99-83.27 52.87-154.29 125.99-183.43 0.59-64.22 31.44-121.21 78.99-157.39-33.6-25.56-75.53-40.74-121-40.74-110.46 0-200 89.54-200 200 0 80.46 47.51 149.82 116.02 181.56z"/></clipPath><clipPath clipPathUnits="userSpaceOnUse" id="cp2"><path d="m201 455.74c45.47 0 87.4-15.18 121-40.74 33.6 25.56 75.53 40.74 121 40.74 26.14 0 51.11-5.01 73.99-14.13-1 109.6-90.16 198.13-199.99 198.13-110.46 0-200-89.54-200-200q0-1.22 0.02-2.43c25.53 11.83 53.98 18.43 83.98 18.43z"/></clipPath><clipPath clipPathUnits="userSpaceOnUse" id="cp3"><path d="m400 256q0 1.22-0.01 2.44c68.5 31.74 116.01 101.1 116.01 181.56q0 0.93-0.01 1.87c73.83-29.42 126.01-101.55 126.01-185.87 0-110.46-89.54-200-200-200-45.47 0-87.4 15.18-121 40.74 48.01 36.53 79 94.28 79 159.26z"/></clipPath></defs><style>.a{fill:none}.b{opacity:.5;fill:#d9d9d9}.c{opacity:.4;fill:#4979c1}.d{opacity:.2;fill:#17c1f7}</style><g clip-path="url(#cp1)"><path class="a" d="m-95 55h513v385h-513z"/></g><path class="b" d="m200 456c-110.6 0-200-89.4-200-200 0-110.6 89.4-200 200-200 110.6 0 200 89.4 200 200 0 110.6-89.4 200-200 200z"/><g clip-path="url(#cp2)"><path class="a" d="m94 372h426v281h-426z"/></g><path class="c" d="m319 640c-110.6 0-200-89.4-200-200 0-110.6 89.4-200 200-200 110.6 0 200 89.4 200 200 0 110.6-89.4 200-200 200z"/><g clip-path="url(#cp3)"><path class="a" d="m323-11h612v464h-612z"/></g><path class="d" d="m442 456c-110.6 0-200-89.4-200-200 0-110.6 89.4-200 200-200 110.6 0 200 89.4 200 200 0 110.6-89.4 200-200 200z"/><path fill-rule="evenodd" d="m57.1 42.2q-0.5 0-0.8-0.2-0.3-0.1-0.3-0.4 0-0.5 1.1-0.8 1.6-0.4 2.2-0.9 0.7-0.6 0.7-2v-19q0-1.4-0.6-2-0.6-0.6-2.1-0.9-0.6-0.2-0.9-0.4-0.2-0.2-0.2-0.5 0-0.3 0.2-0.4 0.3-0.2 0.8-0.2 1.2 0 2.3 0.1 1.1 0 2.2 0.1 1 0 2.2 0 1.9 0 4 0 2.2-0.1 3.9-0.1 1.4 0 2.3-0.1 0.9-0.1 1.1-0.1 0.3 0 0.6 0.1 0.3 0.2 0.4 0.5 0.1 1.4 0.4 2.8 0.2 1.3 0.2 2.3 0 0.4-0.2 0.6-0.1 0.2-0.3 0.2-0.3 0-0.4-0.2-0.2-0.1-0.3-0.4-0.4-1-0.6-1.7-0.3-0.7-0.7-1.1-0.6-0.6-1.3-0.9-0.7-0.3-1.7-0.3h-3.9q-0.8 0-1.4 0.4-0.6 0.4-0.6 1.2v8.3q0 0.4 0.2 0.7 0.3 0.2 0.7 0.2h3.9q1.1 0 1.6-0.6 0.5-0.6 0.8-1.7 0.3-0.9 0.8-0.9 0.2 0 0.4 0.3 0.1 0.2 0.1 0.6 0 0.4 0 1-0.1 0.6-0.1 1.2 0 0.6 0 1 0 0.5 0 1.1 0 0.7 0 1.3 0.1 0.6 0.1 1 0 0.5-0.1 0.7-0.1 0.3-0.3 0.3-0.7 0-1-1.2-0.3-1.2-0.8-1.8-0.4-0.5-1.2-0.5h-4q-0.5 0-0.8 0.2-0.3 0.2-0.3 0.8v7.9q0 1.4 0.6 2 0.6 0.5 1.8 0.5h3.4q1.1 0 1.9-0.2 0.9-0.2 1.5-0.7 0.7-0.5 1.3-1.3 0.6-0.9 1.1-1.9 0.2-0.4 0.3-0.5 0.2-0.1 0.5-0.1 0.2 0.1 0.3 0.3 0.1 0.2 0.1 0.4 0 0.6-0.2 1.5-0.2 1-0.6 2-0.3 0.9-0.5 1.8-0.1 0.3-0.4 0.4-0.2 0.2-0.5 0.2-1 0-2.6-0.1-1.5 0-3.4 0-1.8-0.1-3.7-0.1-2 0-3.7 0-0.9 0-1.8 0-0.9 0.1-1.9 0.1-0.9 0.1-1.8 0.1zm33.8 0.5q-0.2 0-0.5-0.4-0.2-0.4-0.5-1.1-0.2-0.6-0.6-1.3l-6.2-13.3q-0.3-0.7-0.6-1.1-0.4-0.5-0.9-0.7-0.4-0.3-1.2-0.5-0.3-0.1-0.5-0.2-0.3-0.2-0.3-0.5 0-0.3 0.2-0.4 0.3-0.2 0.5-0.2 0.8 0 1.6 0.1 0.8 0 1.5 0 0.8 0 1.5 0 0.6 0 1.5 0 1-0.1 1.9-0.1 1-0.1 1.9-0.1 0.3 0 0.5 0.2 0.3 0.2 0.3 0.4 0 0.3-0.3 0.5-0.3 0.2-0.6 0.3-0.6 0.1-1 0.4-0.3 0.2-0.4 0.5 0 0.7 0.4 1.6l3.2 8.1q0.3 0.8 0.4 0.7 0.2-0.1 0.4-0.7l3.2-8q0.2-0.3 0.3-0.7 0-0.5 0-0.8 0-0.5-0.4-0.7-0.4-0.3-1-0.4-0.3-0.1-0.6-0.3-0.3-0.2-0.3-0.5 0-0.2 0.3-0.4 0.3-0.1 0.6-0.1 0.8 0 1.3 0 0.5 0 0.9 0.1 0.5 0 1.1 0 0.6 0 0.9 0 0.4-0.1 0.8-0.1 0.4-0.1 1.1-0.1 0.3 0 0.6 0.2 0.3 0.1 0.3 0.4 0 0.3-0.3 0.4-0.3 0.2-0.5 0.2-1.1 0.4-1.8 0.9-0.7 0.5-1 1.4-1 2.4-2.1 5-1.1 2.5-2.2 4.8-1 2.3-1.9 4.1-0.2 0.5-0.5 1-0.3 0.6-0.5 1-0.3 0.4-0.5 0.4zm23.4-0.5q-0.4 0-0.6-0.2-0.3-0.2-0.3-0.4 0-0.4 0.3-0.5 0.2-0.2 0.6-0.3 1.2-0.2 1.5-0.7 0.4-0.5 0.1-1.4l-0.6-2q0-0.2-0.2-0.2-0.1-0.2-0.5-0.2h-5.8q-0.3 0-0.4 0.2-0.1 0.1-0.2 0.3-0.4 0.8-0.6 1.3-0.2 0.5-0.2 1-0.2 0.8 0.2 1.1 0.4 0.4 1.6 0.7 0.3 0.1 0.6 0.2 0.2 0.1 0.2 0.5 0 0.2-0.2 0.4-0.3 0.1-0.6 0.1-0.9 0-1.5-0.1-0.5 0-1 0-0.5 0-1.2 0-0.7 0-1.1 0-0.4 0-0.9 0.1-0.5 0-1.3 0-0.3 0-0.6-0.1-0.3-0.1-0.3-0.4 0-0.4 0.3-0.5 0.3-0.1 0.5-0.1 0.7-0.2 1.2-0.4 0.5-0.2 0.9-0.6 0.4-0.4 0.8-1.2l4.8-11.5q0.5-1.1 0.5-1.7 0-0.6 0.2-0.7 0.4-0.2 1.1-0.7 0.7-0.4 1.4-0.8 0.7-0.4 0.9-0.5 0.5-0.3 0.8-0.5 0.3-0.1 0.5-0.1 0.2 0 0.4 0.3 0.1 0.2 0.2 0.5l5.6 15.5q0.3 0.8 0.8 1.5 0.5 0.6 1.5 0.8 0.3 0 0.6 0.1 0.3 0.2 0.3 0.5 0 0.3-0.3 0.4-0.2 0.1-0.4 0.1-1.2 0-2.5 0-1.1-0.1-2.2-0.1-0.7 0-1.5 0.1-0.8 0-1.7 0.1-0.9 0.1-1.7 0.1zm-4.6-7.6h4.3q0.3 0 0.4-0.1 0.1-0.1 0-0.4-0.2-0.6-0.5-1.4-0.3-0.9-0.7-1.7-0.3-1-0.6-1.9-0.3-0.8-0.5-1.5-0.1-0.3-0.2-0.3-0.1 0-0.2 0.3-0.6 1.4-1.3 3.1-0.6 1.8-1.2 3.4-0.1 0.2 0 0.3 0.1 0.2 0.5 0.2zm36.5 8q-0.7 0-1.2-0.2-0.5-0.1-0.9-0.5-0.4-0.4-1-1.1l-10.1-11.8q-0.3-0.4-0.6-0.6-0.2-0.2-0.3-0.2-0.2 0-0.2 0.3-0.1 0.2-0.1 0.6 0 1.5 0.1 3.3 0 1.7 0 3.4 0.1 1.7 0.2 2.8 0.1 1 0.6 1.5 0.5 0.4 1.9 0.7 0.3 0 0.6 0.2 0.3 0.2 0.3 0.5 0 0.3-0.3 0.4-0.3 0.1-0.5 0.1-1.3 0-1.8 0-0.6-0.1-1.6-0.1-1.2 0-2.1 0.1-0.9 0.1-1.7 0.1-0.3 0-0.5-0.1-0.2-0.2-0.2-0.5 0-0.3 0.2-0.4 0.2-0.2 0.6-0.2 0.8-0.2 1.4-0.6 0.7-0.4 0.7-1.4 0.1-0.5 0.1-1.5 0.1-1 0.1-2.3 0.1-1.3 0.1-2.8 0.1-1.4 0.1-2.8 0-1.4 0-2.5 0-0.8-0.3-1.3-0.4-0.5-1.1-1-0.5-0.4-1.3-0.6-0.3 0-0.6-0.2-0.2-0.2-0.2-0.5 0-0.2 0.2-0.3 0.3-0.2 0.6-0.2 0.5 0 1.2 0.1 0.8 0 1.8 0 0.9 0.1 2 0.1 1 0 1.8 0 0.3 0 0.6 0.2 0.2 0.2 0.4 0.4l9.7 11.1q0.1 0.1 0.2 0.3 0.2 0.2 0.3 0.2 0.1 0 0.1-0.1 0.1-0.2 0.1-0.4l-0.2-7.9q0-1.2-0.5-1.7-0.4-0.6-1.9-1-0.2 0-0.5-0.2-0.3-0.2-0.3-0.5 0-0.3 0.2-0.4 0.3-0.1 0.5-0.1 1 0 1.6 0 0.5 0 1 0.1 0.4 0 1.1 0 0.7 0 1.1 0 0.4-0.1 0.9-0.1 0.4 0 1.2 0 0.2 0 0.5 0.1 0.2 0.2 0.2 0.4 0 0.3-0.2 0.5-0.3 0.1-0.6 0.2-1.1 0.2-1.6 0.8-0.5 0.5-0.5 1.7l-0.3 13.8q0 1-0.3 1.5-0.3 0.6-0.8 0.6zm18.9-0.1q-3.1 0-5.7-1.2-2.6-1.2-4.1-3.4-1.5-2.2-1.5-5.2 0-2 0.8-3.8 0.9-1.8 2.4-3.2 1.6-1.3 3.8-2.1 2.3-0.9 4.9-0.9 1.6 0 3.1 0.3 1.5 0.2 2.8 0.6 0.3 0.2 0.6 0.4 0.2 0.3 0.3 0.7 0.2 1 0.3 1.9 0.2 0.9 0.2 1.6 0 0.2-0.2 0.6-0.1 0.3-0.4 0.3-0.3 0-0.5-0.3-0.2-0.3-0.4-0.7-0.5-1.1-1.2-2-0.6-0.9-1.7-1.4-1.1-0.5-2.7-0.5-2 0-3.5 1.1-1.4 1-2.2 2.8-0.7 1.7-0.7 3.7 0 2.3 0.6 4.5 0.7 2.1 2 3.4 1.4 1.3 3.4 1.3 1.1 0 1.7-0.6 0.6-0.5 0.6-1.6l0.1-2.8q0-0.6-0.3-0.8-0.4-0.4-1-0.5-0.5-0.1-1.2-0.2-0.4-0.1-0.6-0.3-0.3-0.2-0.3-0.5 0-0.3 0.3-0.4 0.3-0.1 0.6-0.1 0.7 0 1.6 0 0.8 0 1.7 0.1 0.9 0 1.5 0 0.9 0 1.9 0 1-0.1 1.9-0.1 0.4 0 0.6 0.1 0.3 0.1 0.3 0.4 0 0.3-0.3 0.5-0.2 0.2-0.6 0.3-0.8 0.2-1.2 0.5-0.3 0.3-0.3 0.9v2.6q0 0.5 0.1 0.7 0.2 0.3 0.5 0.5 0.1 0.1 0.2 0.3 0.2 0.1 0.2 0.2 0 0.2-0.3 0.5-0.3 0.2-0.7 0.3-0.5 0.3-2.3 0.9-1.8 0.6-5.1 0.6zm13.8-0.4q-0.3 0-0.5-0.1-0.2-0.3-0.2-0.5 0-0.3 0.2-0.5 0.3-0.2 0.6-0.3 1-0.2 1.5-0.5 0.5-0.3 0.5-1.3v-12.2q0-1.1-0.4-1.6-0.4-0.5-1.6-0.7-0.3-0.1-0.5-0.3-0.3-0.2-0.3-0.5 0-0.3 0.3-0.5 0.2-0.1 0.5-0.1 0.6 0 1.3 0 0.6 0.1 1.3 0.1 0.7 0 1.2 0 1.5 0 3.2 0 1.7 0 3.2 0 1.5 0 2.7 0 1.1-0.1 1.5-0.1 0.2 0 0.5 0.1 0.3 0.2 0.3 0.5 0 1.2 0.2 2.2 0.3 1.1 0.3 1.8 0 0.2-0.2 0.4 0 0.2-0.2 0.2-0.2 0-0.4-0.1-0.2-0.2-0.4-0.6-0.6-1.3-1.1-2.1-0.6-0.7-1.9-0.7h-2.9q-0.5 0-0.9 0.2-0.4 0.3-0.4 1v4.9q0 0.4 0.2 0.6 0.2 0.3 0.5 0.3h2.4q0.7 0 1.1-0.5 0.4-0.4 0.7-1.4 0.2-0.3 0.4-0.4 0.1-0.2 0.3-0.2 0.2 0 0.3 0.2 0.2 0.2 0.1 0.5-0.1 0.8-0.1 1.4 0 0.6 0 1.2 0 0.7 0 1.2 0.1 0.4 0.1 1.3 0.1 0.4 0 0.7-0.2 0.2-0.3 0.2-0.3 0-0.5-0.3-0.2-0.3-0.3-0.6-0.2-0.9-0.6-1.3-0.4-0.4-0.9-0.4-0.7 0-1.4 0-0.7 0-1.3 0-0.4 0-0.6 0.2-0.1 0.1-0.1 0.5v4.9q0 0.8 0.2 1.1 0.3 0.3 1.1 0.3h3.2q1.4 0 2.4-0.9 1-0.9 1.4-2.1 0.1-0.3 0.3-0.4 0.1-0.2 0.4-0.2 0.2 0 0.3 0.2 0.2 0.2 0.2 0.5-0.1 0.9-0.4 1.9-0.2 0.9-0.5 2.1-0.1 0.3-0.4 0.5-0.3 0.2-0.6 0.2-0.8 0-2.1-0.1-1.2 0-2.6 0-1.5 0-2.9 0-1.5 0-2.9 0-0.6 0-1.5 0-0.8 0-1.6 0.1-0.8 0-1.4 0zm20.5 0q-0.1 0-0.4-0.1-0.2-0.2-0.2-0.4 0-0.2 0.2-0.4 0.2-0.2 0.6-0.3 1-0.3 1.5-0.6 0.6-0.3 0.6-1.3v-12.2q0-1.1-0.4-1.6-0.4-0.5-1.7-0.9-0.4-0.1-0.6-0.2-0.2-0.2-0.2-0.6 0-0.3 0.2-0.4 0.3-0.1 0.5-0.1 0.7 0 1.5 0 0.9 0.1 1.7 0.1 0.8 0 1.5 0 0.6 0 1.4 0 0.9 0 1.7 0 0.9-0.1 1.6-0.1 0.2 0 0.4 0.1 0.2 0.2 0.2 0.4 0 0.4-0.2 0.6-0.3 0.1-0.6 0.2-1 0.2-1.4 0.9-0.4 0.6-0.4 1.7v11.8q0 0.9 0.3 1.2 0.4 0.3 1 0.3h3q1 0 1.6-0.3 0.7-0.3 1.2-1 0.6-0.7 1.2-2 0.1-0.3 0.3-0.4 0.2-0.3 0.5-0.3 0.3 0 0.4 0.3 0.1 0.2 0.1 0.5 0 0.2-0.2 0.8-0.1 0.7-0.4 1.4-0.2 0.8-0.3 1.5-0.2 0.6-0.3 0.8 0 0.2-0.2 0.4-0.2 0.2-0.5 0.2-0.8 0-2.1 0-1.2-0.1-2.7-0.1-1.5 0-3.1 0-1.5 0-2.8 0-1 0-2.1 0-1 0.1-2.4 0.1zm20.5 0q-0.3 0-0.5-0.1-0.3-0.2-0.3-0.5 0-0.3 0.3-0.5 0.2-0.1 0.5-0.2 1-0.2 1.5-0.5 0.6-0.4 0.6-1.4v-12.3q0-1.1-0.4-1.6-0.4-0.5-1.6-0.7-0.4-0.1-0.6-0.2-0.2-0.2-0.2-0.6 0-0.3 0.2-0.4 0.3-0.1 0.6-0.1 0.6 0 1.4 0 0.9 0.1 1.7 0.1 0.8 0 1.5 0 0.6 0 1.5 0 0.8 0 1.7 0 0.9-0.1 1.6-0.1 0.3 0 0.5 0.1 0.2 0.2 0.2 0.4 0 0.3-0.2 0.5-0.3 0.1-0.6 0.3-0.9 0.2-1.3 0.5-0.4 0.3-0.5 0.7-0.2 0.5-0.2 1.1v12.2q0 1 0.6 1.4 0.5 0.3 1.4 0.6 0.3 0.1 0.6 0.2 0.3 0.2 0.3 0.5 0 0.3-0.3 0.4-0.2 0.1-0.4 0.1-0.7 0-1.6 0-0.9 0-1.7 0-0.9-0.1-1.6-0.1-0.7 0-1.6 0.1-0.8 0-1.6 0-0.8 0.1-1.5 0.1zm20.1 0.4q-1.5 0-2.8-0.3-1.1-0.3-2.2-0.7-0.3-0.1-0.4-0.3-0.2-0.1-0.3-0.3-0.3-0.5-0.4-1.3-0.1-0.7-0.2-1.5-0.1-0.8-0.1-1.8 0-0.3 0.2-0.6 0.2-0.4 0.5-0.4 0.5 0 0.7 0.4 0.2 0.3 0.3 0.6 0.5 1.2 1.2 2.2 0.7 1 1.6 1.7 1 0.7 2.2 0.7 1.6 0 2.3-0.8 0.6-0.7 0.6-1.7 0-0.8-0.5-1.5-0.4-0.7-1.7-1.4l-3-1.8q-1.6-1-2.6-2.2-1.1-1.3-1.1-3.2 0-1.8 1.1-3.1 1.2-1.2 2.9-1.8 1.7-0.6 3.5-0.6 1.3 0 2.5 0.2 1.1 0.2 1.8 0.4 0.3 0.1 0.5 0.2 0.2 0.2 0.3 0.7 0.2 0.6 0.2 1.5 0 0.9 0.1 2 0 0.3-0.3 0.5-0.2 0.3-0.5 0.3-0.2 0-0.5-0.2-0.3-0.3-0.4-0.6-0.3-1.3-0.9-2.1-0.7-0.8-1.5-1.1-0.7-0.3-1.5-0.3-1.3 0-2 0.7-0.8 0.7-0.8 1.5 0 1 0.6 1.6 0.7 0.7 1.8 1.4l3.5 2q1.4 0.8 2.3 2.2 0.8 1.3 0.8 3 0 1.3-0.9 2.7-0.8 1.3-2.6 2.2-1.7 0.9-4.3 0.9zm24.1-0.1q-0.5 0-1-1-1.6-3-2.9-5.9-1.3-2.9-2.7-5.8-0.3-0.6-0.4-0.5-0.2 0-0.3 0.5-0.1 0.9-0.3 2.5-0.2 1.5-0.3 3.2-0.1 1.7-0.2 3.1 0 0.9 0.4 1.5 0.5 0.7 1.7 0.8 0.4 0 0.6 0.2 0.3 0.2 0.3 0.5 0 0.2-0.3 0.4-0.2 0.1-0.4 0.1-0.9 0-1.3 0-0.4 0-0.7 0-0.3-0.1-0.9-0.1-0.7 0-1.5 0.1-0.7 0-1.3 0-0.6 0.1-1.1 0.1-0.2 0-0.5-0.1-0.2-0.2-0.2-0.5 0-0.3 0.3-0.4 0.3-0.2 0.6-0.2 0.9-0.2 1.4-0.8 0.6-0.6 0.8-1.7 0.1-0.7 0.3-2 0.2-1.3 0.5-2.8 0.3-1.6 0.5-3.1 0.2-1.5 0.3-2.7 0.2-1.2 0.2-1.7 0-0.9-0.6-1.3-0.6-0.4-1.8-0.6-0.4-0.1-0.7-0.3-0.3-0.2-0.3-0.5 0-0.2 0.3-0.3 0.3-0.2 0.5-0.2 0.8 0 1.5 0 0.7 0 1.5 0.1 0.8 0 2 0 0.6 0 0.8 0.1 0.3 0.1 0.5 0.2 0.3 0.3 0.4 0.6 0.2 0.2 0.4 0.5l5.2 10.7q0.2 0.4 0.3 0.4 0.2 0 0.3-0.3 1.8-3.8 2.9-6.3 1.1-2.6 1.8-4.3 0.2-0.5 0.4-0.9 0.2-0.4 0.4-0.4l1.3-0.1q1.5 0 2.8-0.1 1.3-0.2 2.2-0.2 0.4 0 0.6 0.2 0.3 0.1 0.3 0.4 0 0.3-0.2 0.5-0.3 0.2-0.7 0.3-1.1 0.2-1.7 0.8-0.6 0.5-0.6 1.7 0.1 1.7 0.2 2.9 0 1.2 0 2.3 0.1 1 0.1 2 0.1 1 0.1 2.2 0.1 1.2 0.3 2.8 0 0.8 0.6 1.2 0.5 0.4 1.5 0.6 0.3 0 0.5 0.2 0.4 0.2 0.4 0.5 0 0.2-0.3 0.4-0.3 0.1-0.6 0.1-0.6 0-1.5 0-0.8 0-1.7 0-0.9-0.1-1.5-0.1-0.7 0-1.6 0.1-0.8 0-1.7 0-0.9 0.1-1.5 0.1-0.3 0-0.6-0.1-0.2-0.2-0.2-0.5 0-0.3 0.2-0.5 0.3-0.1 0.7-0.2 1-0.1 1.5-0.5 0.5-0.4 0.5-1.4-0.1-1.4-0.1-2.9 0-1.5-0.1-3.1 0-1.6-0.1-3.2-0.1-0.4-0.2-0.4-0.2 0-0.4 0.4l-5 11.6q-0.3 0.6-0.5 0.8-0.2 0.3-0.4 0.3zm29.2 0.1q-2.9 0-5.4-1.3-2.4-1.2-3.9-3.4-1.5-2.2-1.5-5 0-1.9 0.8-3.7 0.8-1.8 2.2-3.2 1.5-1.5 3.5-2.3 2-0.8 4.5-0.8 2.2 0 4.1 0.7 2.1 0.6 3.6 2 1.6 1.3 2.4 3 1 1.8 1 3.9 0 2.6-1.3 4.9-1.3 2.3-3.9 3.8-2.4 1.4-6.1 1.4zm0.5-1.8q1.4 0 2.3-0.6 1-0.7 1.6-1.8 0.6-1 0.8-2.4 0.3-1.4 0.3-2.9 0-2.3-0.7-4.3-0.6-1.9-1.9-3.1-1.2-1.2-3-1.2-1.6 0-2.7 1.1-1.1 1-1.7 2.7-0.5 1.7-0.5 3.8 0 2.5 0.6 4.5 0.6 2 1.9 3.1 1.2 1.1 3 1.1z"/><path fill-rule="evenodd" d="m403 42.6q-1.8 0-3.5-0.4-1.6-0.5-2.9-1.4-0.2-0.2-0.5-0.4-0.2-0.3-0.3-0.6-0.3-1-0.5-2.5-0.1-1.6 0-3 0-0.3 0.2-0.4 0.2-0.2 0.6-0.2 0.3 0 0.5 0.2 0.2 0 0.3 0.3 0.9 3.2 2.6 4.9 1.8 1.8 4 1.8 1.4 0 2.4-0.6 1-0.7 1.5-1.7 0.5-1 0.5-2.1 0-1.5-0.6-2.5-0.5-0.9-1.5-1.7-1.1-0.8-2.7-1.7-1.7-1-3.3-2.1-1.7-1.1-2.7-2.6-1.1-1.6-1.1-3.9 0-2.3 1.2-4.1 1.2-1.8 3.4-2.8 2.1-1 4.9-1 1.6 0 2.9 0.3 1.4 0.4 2.1 0.7 0.5 0.2 0.7 0.4 0.3 0.3 0.4 0.8 0.3 0.9 0.4 2.1 0.2 1.3 0.2 2.6 0 0.5-0.7 0.5-0.4 0-0.7-0.2-0.3-0.1-0.4-0.4-0.8-2.5-2.1-3.7-1.3-1.3-3.3-1.3-1.3 0-2.2 0.5-0.9 0.4-1.4 1.3-0.6 0.9-0.6 2.3 0 1.1 0.7 2 0.8 1 2.1 1.9 1.3 0.8 3 1.9 2 1.2 3.3 2.4 1.4 1.2 2.1 2.6 0.7 1.5 0.7 3.4 0 2.8-1.2 4.7-1.2 1.8-3.4 2.8-2.2 0.9-5.1 0.9zm13.4-0.5q-0.3 0-0.5-0.1-0.2-0.3-0.2-0.5 0-0.3 0.2-0.5 0.3-0.2 0.7-0.3 0.9-0.2 1.4-0.5 0.5-0.3 0.5-1.3v-12.2q0-1.1-0.4-1.6-0.4-0.5-1.5-0.7-0.4-0.1-0.6-0.3-0.2-0.2-0.2-0.5 0-0.3 0.2-0.5 0.3-0.1 0.5-0.1 0.6 0 1.3 0 0.7 0.1 1.3 0.1 0.7 0 1.2 0 1.5 0 3.2 0 1.7 0 3.2 0 1.5 0 2.7 0 1.1-0.1 1.5-0.1 0.2 0 0.5 0.1 0.3 0.2 0.3 0.5 0 1.2 0.2 2.2 0.3 1.1 0.3 1.8 0 0.2-0.1 0.4-0.1 0.2-0.3 0.2-0.2 0-0.4-0.1-0.2-0.2-0.4-0.6-0.6-1.3-1.1-2.1-0.6-0.7-1.9-0.7h-2.9q-0.5 0-0.9 0.2-0.4 0.3-0.4 1v4.9q0 0.4 0.2 0.6 0.2 0.3 0.6 0.3h2.3q0.8 0 1.1-0.5 0.4-0.4 0.7-1.4 0.2-0.3 0.4-0.4 0.2-0.2 0.4-0.2 0.1 0 0.3 0.2 0.1 0.2 0 0.5 0 0.8-0.1 1.4 0 0.6 0 1.2 0 0.7 0.1 1.2 0 0.4 0 1.3 0.1 0.4 0 0.7-0.1 0.2-0.3 0.2-0.2 0-0.5-0.3-0.2-0.3-0.3-0.6-0.2-0.9-0.6-1.3-0.4-0.4-0.9-0.4-0.6 0-1.3 0-0.8 0-1.3 0-0.5 0-0.6 0.2-0.2 0.1-0.2 0.5v4.9q0 0.8 0.2 1.1 0.3 0.3 1.1 0.3h3.3q1.3 0 2.3-0.9 1-0.9 1.5-2.1 0-0.3 0.2-0.4 0.2-0.2 0.4-0.2 0.3 0 0.4 0.2 0.1 0.2 0.1 0.5-0.1 0.9-0.4 1.9-0.2 0.9-0.5 2.1-0.1 0.3-0.4 0.5-0.2 0.2-0.6 0.2-0.8 0-2.1-0.1-1.2 0-2.6 0-1.4 0-2.9 0-1.5 0-2.9 0-0.6 0-1.4 0-0.8 0-1.6 0.1-0.8 0-1.5 0zm39.3 0.5q-1.4 0-2.4-0.4-1-0.5-1.8-1.1-0.8-0.7-1.4-1.5-0.5-0.5-1-1.3-0.5-0.8-1-1.7-0.5-0.9-0.9-1.7-0.3-0.6-0.8-0.9-0.5-0.4-1.2-0.4-0.3 0-0.6 0.3-0.3 0.2-0.3 0.5v4.6q0 0.8 0.5 1.2 0.5 0.4 1.8 0.6 0.3 0 0.6 0.2 0.3 0.2 0.3 0.5 0 0.2-0.3 0.4-0.3 0.1-0.5 0.1-0.5 0-1.2 0-0.7 0-1.4 0-0.7 0-1.4 0-0.6-0.1-1.1-0.1-0.7 0-1.6 0.1-0.8 0-1.6 0-0.8 0.1-1.5 0.1-0.3 0-0.5-0.2-0.2-0.2-0.2-0.4 0-0.4 0.2-0.5 0.3-0.2 0.6-0.3 1.1-0.3 1.6-0.6 0.5-0.3 0.5-1.3v-12.5q0-0.9-0.4-1.3-0.4-0.5-1.6-0.6-0.4-0.1-0.6-0.3-0.2-0.2-0.2-0.5 0-0.3 0.2-0.5 0.3-0.1 0.6-0.1 0.9 0 1.6 0.1 0.7 0 1.4 0.1 0.7 0.1 1.5 0.1 1.1 0 2.5-0.2 1.3-0.1 3-0.1 2.3 0 4 0.5 1.8 0.4 2.8 1.5 1 1 1 2.7 0.1 1.2-0.4 2.2-0.5 0.9-1.3 1.5-0.8 0.6-1.8 0.9-0.4 0.2-0.2 0.6 0.5 0.9 1.1 2 0.7 1.1 1.5 2.1 0.8 1 1.4 1.7 0.5 0.5 1.2 1 0.7 0.5 1.3 0.7 0.7 0.3 1.1 0.4 0.2 0 0.4 0.1 0.3 0.1 0.3 0.5 0 0.3-0.5 0.6-0.5 0.3-1.3 0.4-0.9 0.2-2 0.2zm-9.8-10.5q1.8 0 2.9-0.9 1.1-0.9 1-3 0-1.3-0.5-2.1-0.5-0.8-1.4-1.2-0.9-0.4-1.9-0.4-0.6 0-1.2 0.3-0.5 0.2-0.5 1v4.9q0 0.8 0.5 1.1 0.6 0.3 1.1 0.3zm24.1 10.6q-0.3 0-0.5-0.4-0.2-0.4-0.5-1.1-0.3-0.6-0.6-1.3l-6.2-13.3q-0.3-0.7-0.6-1.1-0.4-0.5-0.9-0.7-0.4-0.3-1.2-0.5-0.3-0.1-0.6-0.2-0.2-0.2-0.2-0.5 0-0.3 0.2-0.4 0.3-0.2 0.4-0.2 0.8 0 1.6 0.1 0.9 0 1.6 0 0.8 0 1.4 0 0.7 0 1.6 0 0.9-0.1 1.9-0.1 1-0.1 1.8-0.1 0.3 0 0.6 0.2 0.3 0.2 0.3 0.4 0 0.3-0.4 0.5-0.3 0.2-0.5 0.3-0.6 0.1-1 0.4-0.3 0.2-0.4 0.5 0 0.7 0.4 1.6l3.1 8.1q0.3 0.8 0.5 0.7 0.2-0.1 0.4-0.7l3.2-8q0.1-0.3 0.2-0.7 0.1-0.5 0.1-0.8 0-0.5-0.4-0.7-0.4-0.3-1-0.4-0.3-0.1-0.7-0.3-0.2-0.2-0.2-0.5 0-0.2 0.2-0.4 0.4-0.1 0.6-0.1 0.9 0 1.4 0 0.5 0 0.9 0.1 0.5 0 1.1 0 0.5 0 0.9 0 0.4-0.1 0.8-0.1 0.4-0.1 1.1-0.1 0.3 0 0.6 0.2 0.3 0.1 0.3 0.4 0 0.3-0.3 0.4-0.3 0.2-0.5 0.2-1.1 0.4-1.8 0.9-0.7 0.5-1.1 1.4-1 2.4-2.1 5-1.1 2.5-2.1 4.8-1 2.3-1.9 4.1-0.2 0.5-0.5 1-0.3 0.6-0.5 1-0.3 0.4-0.5 0.4zm14.2-0.6q-0.2 0-0.5-0.1-0.3-0.2-0.3-0.5 0-0.3 0.3-0.5 0.3-0.1 0.5-0.2 1-0.2 1.6-0.5 0.5-0.4 0.5-1.4v-12.3q0-1.1-0.4-1.6-0.4-0.5-1.6-0.7-0.3-0.1-0.6-0.2-0.2-0.2-0.2-0.6 0-0.3 0.2-0.4 0.3-0.1 0.6-0.1 0.7 0 1.5 0 0.8 0.1 1.6 0.1 0.8 0 1.5 0 0.6 0 1.5 0 0.9 0 1.7 0 0.9-0.1 1.6-0.1 0.3 0 0.5 0.1 0.3 0.2 0.3 0.4 0 0.3-0.3 0.5-0.3 0.2-0.6 0.3-0.9 0.2-1.3 0.5-0.4 0.3-0.5 0.7-0.2 0.5-0.2 1.1v12.3q0 0.9 0.6 1.3 0.5 0.3 1.4 0.6 0.3 0.1 0.6 0.2 0.3 0.2 0.3 0.5 0 0.3-0.3 0.4-0.2 0.1-0.4 0.1-0.7 0-1.6 0-0.9 0-1.7 0-0.9-0.1-1.6-0.1-0.7 0-1.5 0.1-0.8 0-1.7 0-0.8 0.1-1.5 0.1zm25.4 0.4q-2.4 0-4.5-0.7-2.1-0.7-3.7-2-1.6-1.2-2.5-3-0.9-1.8-0.9-3.9 0-2 0.8-3.8 0.9-1.9 2.5-3.3 1.6-1.4 3.9-2.2 2.3-0.9 5.2-0.9 0.9 0 1.9 0.2 1.1 0.2 2 0.4 0.9 0.2 1.6 0.5 0.4 0.1 0.5 0.2 0.1 0.1 0.2 0.4 0.2 1 0.3 2.1 0 1.1 0 1.5 0 0.5-0.3 0.6-0.3 0.1-0.6 0-0.4-0.2-0.5-0.5-0.5-1.3-1.1-2.1-0.6-0.8-1.7-1.3-1-0.4-2.7-0.4-2 0-3.4 1.1-1.4 1.1-2.1 2.9-0.8 1.7-0.8 3.7 0 2.6 0.7 4.6 0.8 2 2.2 3.1 1.4 1.1 3.6 1.1 1.3 0 2.4-0.4 1.2-0.5 2-1.3 0.9-0.9 1.4-2.2 0.2-0.6 0.8-0.7 0.6 0 0.6 0.5 0 0.5-0.1 1-0.1 0.6-0.2 1.2-0.2 0.7-0.4 1.5-0.1 0.2-0.4 0.5-0.2 0.2-0.4 0.3-1.1 0.5-2.7 0.9-1.6 0.4-3.6 0.4zm11.7-0.4q-0.2 0-0.5-0.1-0.2-0.2-0.2-0.5 0-0.3 0.2-0.5 0.3-0.1 0.6-0.2 0.9-0.2 1.5-0.5 0.6-0.4 0.6-1.4v-12.3q0-1.1-0.5-1.6-0.4-0.5-1.6-0.7-0.3-0.1-0.6-0.2-0.2-0.2-0.2-0.6 0-0.3 0.3-0.4 0.2-0.1 0.5-0.1 0.7 0 1.5 0 0.8 0.1 1.6 0.1 0.9 0 1.5 0 0.7 0 1.5 0 0.9 0 1.8 0 0.8-0.1 1.5-0.1 0.3 0 0.5 0.1 0.3 0.2 0.3 0.4 0 0.3-0.3 0.5-0.2 0.2-0.6 0.3-0.9 0.2-1.3 0.5-0.4 0.3-0.5 0.7-0.1 0.5-0.1 1.1v12.3q0 0.9 0.5 1.3 0.5 0.3 1.4 0.6 0.4 0.1 0.6 0.2 0.3 0.2 0.3 0.5 0 0.3-0.2 0.4-0.3 0.1-0.5 0.1-0.7 0-1.6 0-0.8 0-1.7 0-0.9-0.1-1.6-0.1-0.7 0-1.5 0.1-0.8 0-1.7 0-0.8 0.1-1.5 0.1zm24.6 0.4q-2.9 0-5.4-1.3-2.4-1.2-3.9-3.4-1.5-2.2-1.5-5 0-1.9 0.8-3.7 0.8-1.8 2.2-3.2 1.5-1.5 3.5-2.3 2-0.8 4.5-0.8 2.1 0 4.1 0.7 2 0.6 3.6 2 1.5 1.3 2.4 3 1 1.8 1 3.9 0 2.6-1.3 4.9-1.4 2.3-3.9 3.8-2.5 1.4-6.1 1.4zm0.5-1.8q1.3 0 2.3-0.6 1-0.7 1.6-1.8 0.6-1 0.8-2.4 0.3-1.4 0.3-2.9 0-2.3-0.7-4.3-0.6-1.9-1.9-3.1-1.3-1.2-3-1.2-1.6 0-2.7 1.1-1.1 1-1.7 2.7-0.5 1.7-0.5 3.8 0 2.5 0.6 4.5 0.6 2 1.8 3.1 1.3 1.1 3.1 1.1z"/><path fill-rule="evenodd" d="m192 683.6q-3.1 0-6-1-2.8-1-5-2.8-2.1-1.9-3.4-4.4-1.2-2.6-1.2-5.8 0-2.9 1.2-5.5 1.3-2.6 3.5-4.7 2.2-2 5.3-3.1 3.1-1.2 6.8-1.2 1.4 0 2.7 0.2 1.3 0.2 2.5 0.5 1.2 0.2 2.4 0.7 0.5 0.1 0.7 0.4 0.3 0.3 0.3 0.8 0.2 1.3 0.3 2.5 0.1 1.3 0.1 2.5 0 0.4-0.3 0.6-0.4 0.2-0.7 0-0.4-0.1-0.6-0.6-0.3-1.2-0.8-2.2-0.4-1-1.3-1.7-0.9-0.8-2.4-1.3-1.5-0.5-3.5-0.5-2.2 0-4.1 0.9-1.8 1-3.2 2.6-1.3 1.6-2 3.7-0.7 2-0.7 4.3 0 2.7 0.6 5.1 0.7 2.4 2 4.2 1.4 1.8 3.2 2.9 1.9 1 4.4 1 3.1 0 5-1.3 1.9-1.4 3.3-4 0.3-0.7 0.9-0.7 0.6 0 0.6 0.7 0 0.5-0.1 1.3-0.2 0.7-0.4 1.6-0.2 0.8-0.5 1.7-0.2 0.5-0.4 0.7-0.3 0.3-0.8 0.5-1.6 0.7-3.8 1-2.1 0.4-4.6 0.4zm25.7-0.1q-2.9 0-5.4-1.3-2.4-1.2-4-3.4-1.4-2.2-1.4-5 0-1.9 0.7-3.7 0.8-1.8 2.3-3.2 1.5-1.5 3.4-2.3 2.1-0.8 4.5-0.8 2.2 0 4.2 0.7 2 0.7 3.6 2 1.5 1.3 2.4 3 0.9 1.8 0.9 3.9 0 2.6-1.3 4.9-1.3 2.3-3.8 3.8-2.5 1.4-6.1 1.4zm0.5-1.8q1.3 0 2.3-0.6 1-0.7 1.5-1.8 0.6-1 0.9-2.4 0.3-1.4 0.3-2.9 0-2.3-0.7-4.3-0.7-1.9-1.9-3.1-1.3-1.2-3.1-1.2-1.6 0-2.6 1.1-1.1 1-1.7 2.7-0.6 1.7-0.6 3.8 0 2.5 0.7 4.5 0.6 2 1.8 3.1 1.3 1.1 3.1 1.1zm33.7 1.9q-0.7 0-1.2-0.2-0.5-0.1-0.9-0.5-0.4-0.4-1-1.1l-10.1-11.8q-0.3-0.4-0.5-0.6-0.3-0.2-0.4-0.2-0.1 0-0.2 0.3-0.1 0.2-0.1 0.6 0 1.5 0.1 3.3 0 1.7 0.1 3.4 0 1.7 0.1 2.8 0.1 1 0.6 1.5 0.6 0.4 1.9 0.7 0.3 0 0.6 0.2 0.3 0.2 0.3 0.5 0 0.3-0.3 0.4-0.3 0.1-0.5 0.1-1.2 0-1.8 0-0.6-0.1-1.6-0.1-1.2 0-2.1 0.1-0.8 0.1-1.7 0.1-0.2 0-0.5-0.1-0.2-0.2-0.2-0.5 0-0.3 0.2-0.4 0.3-0.2 0.6-0.2 0.8-0.2 1.4-0.6 0.7-0.4 0.7-1.4 0.1-0.5 0.1-1.5 0.1-1 0.1-2.3 0.1-1.3 0.2-2.8 0-1.4 0-2.8 0.1-1.4 0.1-2.5 0-0.8-0.4-1.3-0.4-0.5-1-1-0.6-0.4-1.3-0.6-0.4 0-0.7-0.2-0.2-0.2-0.2-0.5 0-0.2 0.2-0.3 0.3-0.2 0.7-0.2 0.4 0 1.1 0.1 0.8 0 1.8 0 1 0.1 2 0.1 1 0 1.8 0 0.4 0 0.6 0.2 0.2 0.2 0.4 0.4l9.7 11.1q0.1 0.1 0.3 0.3 0.1 0.2 0.2 0.2 0.1 0 0.2-0.1 0.1-0.2 0.1-0.4l-0.3-7.9q0-1.2-0.5-1.7-0.4-0.6-1.8-1-0.3 0-0.6-0.2-0.3-0.2-0.3-0.5 0-0.3 0.3-0.4 0.3-0.1 0.5-0.1 1 0 1.5 0 0.5 0 1 0.1 0.4 0 1.2 0 0.6 0 1 0 0.4-0.1 0.9-0.1 0.5 0 1.2 0 0.3 0 0.5 0.1 0.3 0.2 0.3 0.4 0 0.3-0.3 0.5-0.2 0.1-0.6 0.2-1.1 0.2-1.6 0.8-0.4 0.5-0.5 1.7l-0.3 13.8q0 1-0.3 1.5-0.3 0.6-0.8 0.6zm13.9-0.1q-1.5 0-2.7-0.3-1.2-0.3-2.3-0.7-0.2-0.1-0.4-0.3-0.2-0.1-0.3-0.3-0.2-0.5-0.4-1.3-0.1-0.7-0.2-1.5-0.1-0.8-0.1-1.8 0-0.3 0.2-0.6 0.2-0.4 0.5-0.4 0.5 0 0.7 0.4 0.2 0.3 0.3 0.6 0.5 1.2 1.2 2.2 0.7 1 1.7 1.7 0.9 0.7 2.1 0.7 1.6 0 2.3-0.8 0.7-0.7 0.7-1.7 0-0.8-0.5-1.5-0.5-0.7-1.7-1.4l-3.1-1.8q-1.6-1-2.6-2.2-1-1.3-1-3.2 0-1.8 1.1-3.1 1.1-1.2 2.8-1.8 1.7-0.6 3.5-0.6 1.3 0 2.5 0.2 1.2 0.2 1.8 0.4 0.4 0.1 0.5 0.2 0.2 0.2 0.4 0.7 0.1 0.6 0.1 1.5 0 0.9 0.1 2 0 0.3-0.2 0.6-0.2 0.2-0.5 0.2-0.3 0-0.6-0.2-0.3-0.3-0.4-0.6-0.2-1.3-0.9-2.1-0.7-0.8-1.5-1.1-0.7-0.3-1.5-0.3-1.3 0-2 0.7-0.7 0.7-0.7 1.5 0 1 0.6 1.6 0.6 0.7 1.8 1.4l3.4 2q1.5 0.8 2.3 2.2 0.9 1.3 0.9 3 0 1.3-0.9 2.7-0.9 1.3-2.7 2.2-1.7 0.9-4.3 0.9zm23.1-0.3q-0.3 0-0.6-0.2-0.2-0.2-0.2-0.4 0-0.4 0.2-0.5 0.3-0.2 0.7-0.3 1.1-0.2 1.5-0.7 0.4-0.5 0.1-1.4l-0.6-2q-0.1-0.2-0.2-0.2-0.2-0.2-0.5-0.2h-5.9q-0.2 0-0.4 0.2 0 0.1-0.2 0.3-0.3 0.8-0.5 1.3-0.2 0.5-0.3 1-0.1 0.8 0.2 1.1 0.4 0.4 1.6 0.7 0.4 0.1 0.6 0.2 0.3 0.1 0.3 0.5 0 0.2-0.3 0.4-0.2 0.1-0.5 0.1-0.9 0-1.5-0.1-0.6 0-1.1 0-0.4 0-1.2 0-0.6 0-1 0-0.5 0-1 0.1-0.4 0-1.2 0-0.3 0-0.6-0.1-0.3-0.1-0.3-0.4 0-0.4 0.2-0.5 0.3-0.1 0.6-0.1 0.7-0.2 1.2-0.4 0.5-0.2 0.9-0.6 0.4-0.4 0.7-1.2l4.9-11.5q0.5-1.1 0.5-1.7 0-0.6 0.1-0.7 0.4-0.2 1.1-0.7 0.8-0.4 1.5-0.8 0.6-0.4 0.9-0.5 0.5-0.3 0.8-0.5 0.3-0.1 0.5-0.1 0.2 0 0.3 0.3 0.2 0.2 0.3 0.5l5.6 15.5q0.3 0.8 0.8 1.5 0.5 0.6 1.5 0.8 0.3 0 0.6 0.1 0.3 0.2 0.3 0.5 0 0.3-0.3 0.4-0.2 0.1-0.5 0.1-1.2 0-2.4 0-1.2-0.1-2.2-0.1-0.7 0-1.5 0.1-0.9 0-1.8 0.1-0.8 0.1-1.7 0.1zm-4.6-7.6h4.4q0.3 0 0.4-0.1 0-0.1 0-0.4-0.2-0.6-0.5-1.4-0.3-0.9-0.7-1.7-0.3-1-0.6-1.9-0.3-0.8-0.5-1.5-0.1-0.3-0.2-0.3-0.1 0-0.2 0.3-0.6 1.4-1.3 3.1-0.6 1.8-1.2 3.4-0.1 0.2-0.1 0.3 0.1 0.2 0.5 0.2zm28.8 7.9q-3.1 0-5.7-1.2-2.6-1.2-4.1-3.4-1.6-2.2-1.6-5.2 0-2 0.9-3.8 0.8-1.8 2.4-3.2 1.6-1.3 3.8-2.1 2.2-0.9 4.9-0.9 1.5 0 3 0.3 1.6 0.2 2.9 0.6 0.3 0.2 0.5 0.4 0.3 0.3 0.3 0.7 0.2 1 0.4 1.9 0.1 0.9 0.2 1.6 0 0.2-0.2 0.6-0.1 0.3-0.4 0.3-0.3 0-0.6-0.3-0.2-0.3-0.3-0.7-0.5-1.1-1.2-2-0.7-0.9-1.7-1.4-1.1-0.5-2.7-0.5-2 0-3.5 1.1-1.4 1-2.2 2.8-0.7 1.7-0.7 3.7 0 2.3 0.6 4.5 0.7 2.1 2 3.4 1.3 1.3 3.4 1.3 1.1 0 1.7-0.6 0.6-0.5 0.6-1.6l0.1-2.8q0-0.6-0.4-0.8-0.3-0.4-0.9-0.5-0.5-0.1-1.2-0.2-0.4-0.1-0.7-0.3-0.2-0.2-0.2-0.5 0-0.3 0.2-0.4 0.3-0.1 0.7-0.1 0.7 0 1.5 0 0.9 0 1.8 0.1 0.9 0 1.5 0 0.9 0 1.9 0 1-0.1 1.9-0.1 0.4 0 0.6 0.1 0.3 0.1 0.3 0.4 0 0.3-0.3 0.5-0.2 0.2-0.6 0.3-0.9 0.2-1.2 0.5-0.3 0.3-0.3 0.9l-0.1 2.6q0 0.5 0.2 0.7 0.2 0.3 0.4 0.5 0.2 0.1 0.3 0.3 0.1 0.1 0.1 0.2 0 0.2-0.3 0.5-0.2 0.2-0.6 0.3-0.5 0.3-2.3 0.9-1.8 0.6-5.1 0.6zm32.5 0.1q-1.3 0-2.4-0.4-1-0.5-1.8-1.1-0.7-0.7-1.4-1.5-0.4-0.5-1-1.3-0.5-0.8-1-1.7-0.5-0.9-0.9-1.7-0.3-0.6-0.8-0.9-0.5-0.4-1.2-0.4-0.2 0-0.5 0.3-0.3 0.2-0.3 0.5v4.6q0 0.8 0.4 1.2 0.5 0.4 1.8 0.6 0.3 0 0.6 0.2 0.3 0.2 0.3 0.5 0 0.2-0.3 0.4-0.2 0.1-0.4 0.1-0.6 0-1.2 0-0.7 0-1.4 0-0.7 0-1.4 0-0.7-0.1-1.2-0.1-0.7 0-1.5 0.1-0.8 0-1.6 0-0.8 0.1-1.6 0.1-0.2 0-0.5-0.2-0.2-0.2-0.2-0.4 0-0.4 0.2-0.5 0.3-0.2 0.6-0.3 1.1-0.3 1.6-0.6 0.5-0.3 0.5-1.3v-12.5q0-0.9-0.4-1.3-0.4-0.5-1.5-0.6-0.4-0.1-0.7-0.3-0.2-0.2-0.2-0.5 0-0.3 0.3-0.5 0.2-0.1 0.5-0.1 1 0 1.7 0.1 0.7 0 1.3 0.1 0.7 0.1 1.5 0.1 1.1 0 2.5-0.2 1.3-0.1 3-0.1 2.3 0 4.1 0.5 1.7 0.4 2.8 1.5 1 1 1 2.7 0 1.2-0.5 2.2-0.5 0.9-1.3 1.5-0.8 0.6-1.7 0.9-0.5 0.2-0.3 0.6 0.5 0.9 1.2 2 0.7 1.1 1.4 2.1 0.8 1 1.5 1.7 0.4 0.5 1.1 1 0.7 0.5 1.4 0.7 0.7 0.3 1 0.4 0.2 0 0.4 0.2 0.3 0 0.3 0.4 0 0.3-0.5 0.6-0.4 0.3-1.3 0.4-0.8 0.2-2 0.2zm-9.8-10.5q1.9 0 2.9-0.9 1.1-0.9 1.1-3 0-1.3-0.6-2.1-0.5-0.8-1.4-1.2-0.8-0.4-1.8-0.4-0.7 0-1.3 0.3-0.5 0.2-0.5 1l0.1 4.9q0 0.8 0.5 1.1 0.5 0.3 1 0.3zm27.4 10.1q-0.3 0-0.6-0.2-0.2-0.2-0.2-0.4 0-0.4 0.2-0.5 0.3-0.2 0.6-0.3 1.2-0.2 1.6-0.7 0.4-0.5 0.1-1.4l-0.6-2q-0.1-0.2-0.3-0.2-0.1-0.2-0.5-0.2h-5.8q-0.2 0-0.4 0.2-0.1 0.1-0.2 0.3-0.4 0.8-0.5 1.3-0.2 0.5-0.3 1-0.1 0.8 0.2 1.1 0.4 0.4 1.6 0.7 0.4 0.1 0.6 0.2 0.3 0.1 0.3 0.5 0 0.2-0.3 0.4-0.2 0.1-0.5 0.1-0.9 0-1.5-0.1-0.6 0-1.1 0-0.5 0-1.2 0-0.6 0-1.1 0-0.4 0-0.9 0.1-0.5 0-1.2 0-0.3 0-0.6-0.1-0.3-0.1-0.3-0.4 0-0.4 0.2-0.5 0.3-0.1 0.6-0.1 0.6-0.2 1.1-0.4 0.5-0.2 1-0.6 0.4-0.4 0.7-1.2l4.9-11.5q0.5-1.1 0.5-1.7 0-0.6 0.1-0.7 0.4-0.2 1.1-0.7 0.8-0.4 1.4-0.8 0.7-0.4 1-0.5 0.5-0.3 0.8-0.5 0.3-0.1 0.5-0.1 0.2 0 0.3 0.3 0.1 0.2 0.3 0.5l5.5 15.5q0.4 0.8 0.8 1.5 0.5 0.6 1.6 0.8 0.3 0 0.5 0.1 0.3 0.2 0.3 0.5 0 0.3-0.2 0.4-0.2 0.1-0.5 0.1-1.2 0-2.4 0-1.2-0.1-2.2-0.1-0.7 0-1.6 0.1-0.8 0-1.7 0.1-0.9 0.1-1.7 0.1zm-4.6-7.6h4.4q0.2 0 0.3-0.1 0.1-0.1 0-0.4-0.1-0.6-0.4-1.4-0.3-0.9-0.7-1.7-0.3-1-0.6-1.9-0.3-0.8-0.5-1.5-0.2-0.3-0.2-0.3-0.1 0-0.3 0.3-0.5 1.4-1.2 3.1-0.6 1.8-1.2 3.4-0.1 0.2-0.1 0.3 0.1 0.2 0.5 0.2zm29.1 7.9q-2.4 0-4.6-0.7-2.1-0.7-3.7-2-1.6-1.2-2.5-3-0.9-1.8-0.9-3.9 0-2 0.9-3.8 0.8-1.9 2.4-3.3 1.7-1.4 3.9-2.2 2.4-0.9 5.2-0.9 0.9 0 1.9 0.2 1.1 0.2 2 0.4 1 0.2 1.7 0.5 0.3 0.1 0.4 0.2 0.2 0.1 0.3 0.4 0.2 1 0.2 2.1 0.1 1.1 0.1 1.5 0 0.5-0.3 0.6-0.3 0.1-0.7 0-0.3-0.2-0.5-0.5-0.4-1.3-1.1-2.1-0.6-0.8-1.6-1.3-1-0.4-2.8-0.4-1.9 0-3.4 1.1-1.4 1.1-2.1 2.9-0.8 1.7-0.8 3.7 0 2.6 0.8 4.6 0.7 2 2.1 3.1 1.5 1.1 3.6 1.1 1.4 0 2.5-0.4 1.1-0.5 2-1.3 0.8-0.9 1.3-2.2 0.3-0.6 0.8-0.7 0.7 0 0.7 0.5 0 0.5-0.2 1 0 0.6-0.2 1.2-0.2 0.7-0.4 1.5-0.1 0.2-0.3 0.5-0.2 0.2-0.5 0.3-1 0.5-2.7 0.9-1.6 0.4-3.5 0.4zm11.7-0.4q-0.3 0-0.5-0.1-0.3-0.2-0.3-0.5 0-0.3 0.3-0.5 0.2-0.1 0.5-0.2 1-0.2 1.5-0.5 0.6-0.4 0.6-1.4v-12.3q0-1.1-0.5-1.6-0.4-0.5-1.5-0.7-0.4-0.1-0.6-0.2-0.2-0.2-0.2-0.6 0-0.3 0.2-0.4 0.3-0.1 0.5-0.1 0.7 0 1.5 0 0.9 0.1 1.7 0.1 0.8 0 1.4 0 0.7 0 1.5 0 0.9 0 1.8 0 0.9-0.1 1.6-0.1 0.3 0 0.5 0.1 0.2 0.2 0.2 0.4 0 0.3-0.2 0.5-0.3 0.2-0.6 0.3-0.9 0.2-1.3 0.5-0.4 0.3-0.6 0.7-0.1 0.5-0.1 1.1v12.2q0 1 0.5 1.4 0.6 0.3 1.5 0.6 0.3 0.1 0.6 0.2 0.3 0.2 0.3 0.5 0 0.3-0.3 0.4-0.2 0.1-0.5 0.1-0.6 0-1.5 0-0.9 0-1.8 0-0.9-0.1-1.6-0.1-0.6 0-1.5 0.1-0.8 0-1.6 0-0.8 0.1-1.5 0.1zm24.5 0.4q-2.9 0-5.3-1.3-2.5-1.2-4-3.4-1.5-2.2-1.5-5 0-1.9 0.8-3.7 0.8-1.8 2.3-3.2 1.4-1.5 3.4-2.3 2-0.8 4.5-0.8 2.2 0 4.2 0.7 2 0.7 3.5 2 1.6 1.3 2.5 3 0.9 1.8 0.9 3.9 0 2.6-1.3 4.9-1.3 2.3-3.8 3.8-2.5 1.4-6.2 1.4zm0.5-1.8q1.4 0 2.4-0.6 0.9-0.7 1.5-1.8 0.6-1 0.8-2.4 0.3-1.4 0.3-2.9 0-2.3-0.6-4.3-0.7-1.9-2-3.1-1.2-1.2-3-1.2-1.6 0-2.7 1.1-1.1 1-1.7 2.7-0.5 1.7-0.5 3.8 0 2.5 0.6 4.5 0.7 2 1.9 3.1 1.2 1.1 3 1.1zm33.8 1.9q-0.7 0-1.2-0.2-0.5-0.1-0.9-0.5-0.5-0.4-1-1.1l-10.1-11.8q-0.3-0.4-0.6-0.6-0.2-0.2-0.3-0.2-0.2 0-0.3 0.3 0 0.2 0 0.6 0 1.5 0 3.3 0.1 1.7 0.1 3.4 0.1 1.7 0.2 2.8 0.1 1 0.6 1.5 0.5 0.4 1.9 0.7 0.3 0 0.6 0.2 0.3 0.2 0.3 0.5 0 0.3-0.3 0.4-0.3 0.1-0.5 0.1-1.3 0-1.8 0-0.6-0.1-1.6-0.1-1.2 0-2.1 0.1-0.9 0.1-1.7 0.1-0.3 0-0.5-0.1-0.2-0.2-0.2-0.5 0-0.3 0.2-0.4 0.2-0.2 0.6-0.2 0.8-0.2 1.4-0.6 0.7-0.4 0.7-1.4 0-0.5 0.1-1.5 0.1-1 0.1-2.3 0.1-1.3 0.1-2.8 0.1-1.4 0.1-2.8 0-1.4 0-2.5 0-0.8-0.4-1.3-0.3-0.5-1-1-0.5-0.4-1.3-0.6-0.3 0-0.6-0.2-0.2-0.2-0.2-0.5 0-0.2 0.2-0.3 0.3-0.2 0.6-0.2 0.5 0 1.2 0.1 0.8 0 1.8 0 0.9 0.1 2 0.1 1 0 1.8 0 0.3 0 0.5 0.2 0.3 0.2 0.5 0.4l9.7 11.1q0.1 0.1 0.2 0.3 0.2 0.2 0.3 0.2 0.1 0 0.1-0.1 0.1-0.2 0.1-0.4l-0.2-7.9q0-1.2-0.5-1.7-0.4-0.6-1.9-1-0.2 0-0.5-0.2-0.3-0.2-0.3-0.5 0-0.3 0.2-0.4 0.3-0.1 0.5-0.1 1 0 1.5 0 0.6 0 1.1 0.1 0.4 0 1.1 0 0.7 0 1.1 0 0.4-0.1 0.9-0.1 0.4 0 1.2 0 0.2 0 0.5 0.1 0.2 0.2 0.2 0.4 0 0.3-0.2 0.5-0.3 0.1-0.6 0.2-1.1 0.2-1.6 0.8-0.5 0.5-0.5 1.7l-0.3 13.8q0 1-0.3 1.5-0.3 0.6-0.8 0.6z"/><path fill-rule="evenodd" d="m248.8 530.6q-2.9 0-5.5-1-2.6-1-4.6-2.8-2-1.8-3.1-4.4-1.2-2.5-1.2-5.6 0-2.9 1-5.5 0.9-2.6 2.8-4.7 1.9-2.1 4.6-3.3 2.8-1.2 6.4-1.2 2.8 0 5.4 1 2.6 1 4.6 2.8 2 1.8 3.2 4.4 1.1 2.5 1.1 5.6 0 2.8-0.9 5.5-1 2.6-2.8 4.7-1.9 2.1-4.7 3.3-2.7 1.2-6.3 1.2zm0.7-1.9q2.7 0 4.4-1.3 1.8-1.3 2.7-3.7 0.9-2.5 0.9-5.6 0-2.7-0.5-5.2-0.6-2.6-1.7-4.5-1.1-2-2.9-3.2-1.6-1.2-4-1.2-2.6 0-4.4 1.3-1.8 1.4-2.7 3.8-0.9 2.4-0.9 5.5 0 2.7 0.6 5.2 0.5 2.6 1.6 4.6 1.2 2 2.8 3.2 1.8 1.1 4.1 1.1zm36.3 1.9q-1.4 0-2.4-0.4-1-0.5-1.8-1.1-0.8-0.7-1.4-1.5-0.5-0.5-1-1.3-0.5-0.8-1-1.7-0.5-0.9-0.9-1.7-0.3-0.6-0.8-0.9-0.5-0.4-1.2-0.4-0.3 0-0.6 0.3-0.3 0.2-0.3 0.5v4.6q0 0.8 0.5 1.2 0.5 0.4 1.8 0.6 0.3 0 0.6 0.2 0.3 0.2 0.3 0.5 0 0.2-0.3 0.4-0.3 0.1-0.5 0.1-0.5 0-1.2 0-0.7 0-1.4 0-0.7 0-1.4 0-0.6-0.1-1.1-0.1-0.7 0-1.6 0.1-0.8 0-1.6 0-0.8 0.1-1.5 0.1-0.3 0-0.5-0.2-0.2-0.2-0.2-0.4 0-0.4 0.2-0.5 0.3-0.2 0.6-0.3 1.1-0.3 1.6-0.6 0.5-0.3 0.5-1.2v-12.6q0-0.9-0.4-1.3-0.4-0.5-1.6-0.6-0.4-0.1-0.6-0.3-0.2-0.2-0.2-0.5 0-0.3 0.2-0.5 0.3-0.1 0.6-0.1 0.9 0 1.6 0.1 0.7 0 1.4 0.1 0.7 0.1 1.5 0.1 1.1 0 2.4-0.2 1.4-0.1 3.1-0.1 2.3 0 4 0.5 1.8 0.4 2.8 1.5 1 1 1 2.7 0.1 1.2-0.4 2.2-0.5 0.9-1.3 1.5-0.8 0.6-1.8 0.9-0.4 0.2-0.2 0.6 0.5 0.9 1.1 2 0.7 1.1 1.5 2.1 0.8 1 1.4 1.7 0.5 0.5 1.2 1 0.7 0.5 1.3 0.7 0.7 0.3 1 0.4 0.3 0 0.5 0.2 0.3 0 0.3 0.4 0 0.3-0.5 0.6-0.5 0.3-1.3 0.4-0.9 0.2-2 0.2zm-9.8-10.5q1.8 0 2.9-0.9 1.1-0.9 1-3 0-1.3-0.5-2.1-0.5-0.8-1.4-1.2-0.9-0.4-1.9-0.4-0.6 0-1.2 0.3-0.5 0.2-0.5 1v4.9q0 0.8 0.5 1.1 0.6 0.3 1.1 0.3zm27.4 10.1q-0.4 0-0.6-0.2-0.3-0.2-0.3-0.4 0-0.4 0.3-0.5 0.2-0.2 0.6-0.3 1.2-0.2 1.6-0.7 0.3-0.5 0-1.4l-0.6-2q0-0.2-0.2-0.2-0.1-0.2-0.5-0.2h-5.8q-0.3 0-0.4 0.2-0.1 0.1-0.2 0.3-0.4 0.8-0.6 1.3-0.1 0.5-0.2 1-0.1 0.8 0.2 1.1 0.4 0.4 1.6 0.7 0.4 0.1 0.6 0.2 0.2 0.1 0.2 0.5 0 0.2-0.2 0.4-0.3 0.1-0.6 0.1-0.9 0-1.4-0.1-0.6 0-1.1 0-0.5 0-1.2 0-0.6 0-1.1 0-0.4 0-0.9 0.1-0.5 0-1.3 0-0.3 0-0.6-0.1-0.3-0.1-0.3-0.4 0-0.4 0.3-0.5 0.3-0.1 0.5-0.1 0.7-0.2 1.2-0.4 0.5-0.2 0.9-0.6 0.4-0.4 0.8-1.2l4.9-11.5q0.4-1.1 0.4-1.7 0-0.6 0.2-0.7 0.4-0.2 1.1-0.7 0.7-0.4 1.4-0.8 0.7-0.4 0.9-0.5 0.5-0.3 0.8-0.5 0.4-0.1 0.5-0.1 0.2 0 0.4 0.3 0.1 0.2 0.2 0.5l5.6 15.5q0.3 0.8 0.8 1.5 0.5 0.6 1.6 0.8 0.3 0 0.5 0.1 0.3 0.2 0.3 0.5 0 0.3-0.3 0.4-0.2 0.1-0.4 0.1-1.2 0-2.4 0-1.2-0.1-2.3-0.1-0.6 0-1.5 0.1-0.8 0-1.7 0.1-0.9 0.1-1.7 0.1zm-4.6-7.6h4.3q0.3 0 0.4-0.1 0.1-0.1 0-0.4-0.2-0.6-0.5-1.4-0.3-0.9-0.6-1.7-0.4-1-0.7-1.9-0.3-0.8-0.5-1.5-0.1-0.3-0.2-0.3-0.1 0-0.2 0.3-0.6 1.4-1.3 3.1-0.6 1.8-1.2 3.4-0.1 0.2 0 0.3 0.1 0.2 0.5 0.2zm29 7.9q-2.4 0-4.5-0.7-2.1-0.7-3.7-2-1.6-1.2-2.5-3-0.9-1.8-0.9-3.9 0-2 0.8-3.8 0.9-1.9 2.5-3.3 1.6-1.4 3.9-2.2 2.3-0.9 5.2-0.9 0.9 0 1.9 0.2 1.1 0.2 2 0.4 0.9 0.2 1.6 0.5 0.4 0.1 0.5 0.2 0.2 0.1 0.2 0.4 0.2 1 0.3 2.1 0 1.1 0 1.5 0 0.5-0.3 0.6-0.3 0.1-0.6 0-0.4-0.2-0.5-0.5-0.5-1.3-1.1-2.1-0.6-0.8-1.7-1.3-1-0.4-2.7-0.4-2 0-3.4 1.1-1.4 1.1-2.1 2.9-0.8 1.7-0.8 3.7 0 2.6 0.7 4.6 0.8 2 2.2 3.1 1.4 1.1 3.6 1.1 1.4 0 2.4-0.4 1.2-0.5 2-1.3 0.9-0.9 1.4-2.2 0.2-0.6 0.8-0.7 0.6 0 0.6 0.5 0 0.5-0.1 1-0.1 0.6-0.2 1.2-0.2 0.7-0.4 1.5-0.1 0.2-0.4 0.5-0.2 0.2-0.4 0.3-1.1 0.5-2.7 0.9-1.6 0.4-3.6 0.4zm11.7-0.4q-0.2 0-0.5-0.1-0.2-0.2-0.2-0.5 0-0.3 0.2-0.5 0.3-0.1 0.6-0.2 0.9-0.2 1.5-0.5 0.6-0.4 0.6-1.4v-12.3q0-1.1-0.5-1.6-0.4-0.5-1.5-0.7-0.4-0.1-0.7-0.2-0.2-0.2-0.2-0.6 0-0.3 0.3-0.4 0.2-0.1 0.5-0.1 0.7 0 1.5 0 0.8 0.1 1.6 0.1 0.9 0 1.5 0 0.7 0 1.5 0 0.9 0 1.8 0 0.8-0.1 1.5-0.1 0.3 0 0.5 0.1 0.3 0.2 0.3 0.4 0 0.3-0.3 0.5-0.2 0.2-0.6 0.3-0.8 0.2-1.3 0.5-0.4 0.3-0.5 0.7-0.1 0.5-0.1 1.1v12.3q0 0.9 0.5 1.3 0.6 0.3 1.4 0.6 0.4 0.1 0.6 0.2 0.3 0.2 0.3 0.5 0 0.3-0.2 0.4-0.3 0.1-0.5 0.1-0.7 0-1.6 0-0.8 0-1.7 0-0.9-0.1-1.6-0.1-0.7 0-1.5 0.1-0.8 0-1.7 0-0.8 0.1-1.5 0.1zm24.6 0.4q-2.9 0-5.4-1.3-2.4-1.2-3.9-3.4-1.5-2.2-1.5-5 0-1.9 0.8-3.7 0.8-1.8 2.2-3.2 1.5-1.5 3.5-2.3 2-0.8 4.5-0.8 2.2 0 4.1 0.7 2 0.6 3.6 2 1.6 1.3 2.4 3 1 1.8 1 3.9 0 2.6-1.3 4.9-1.3 2.3-3.9 3.8-2.4 1.4-6.1 1.4zm0.5-1.8q1.3 0 2.3-0.6 1-0.7 1.6-1.8 0.6-1 0.8-2.4 0.3-1.4 0.3-2.9 0-2.3-0.7-4.3-0.6-1.9-1.9-3.1-1.3-1.2-3-1.2-1.6 0-2.7 1.1-1.1 1-1.7 2.7-0.5 1.7-0.5 3.8 0 2.5 0.6 4.5 0.6 2 1.8 3.1 1.3 1.1 3.1 1.1zm33.8 1.9q-0.7 0-1.2-0.2-0.5-0.1-1-0.5-0.4-0.4-1-1.1l-10.1-11.8q-0.3-0.4-0.5-0.6-0.3-0.2-0.4-0.2-0.1 0-0.2 0.3 0 0.2 0 0.6 0 1.5 0 3.3 0.1 1.7 0.1 3.4 0.1 1.7 0.2 2.8 0 1 0.5 1.5 0.6 0.4 1.9 0.7 0.3 0 0.6 0.2 0.3 0.2 0.3 0.5 0 0.3-0.3 0.4-0.2 0.1-0.4 0.1-1.3 0-1.9 0-0.6-0.1-1.6-0.1-1.2 0-2 0.1-0.9 0.1-1.8 0.1-0.2 0-0.5-0.1-0.2-0.2-0.2-0.5 0-0.3 0.2-0.4 0.3-0.2 0.6-0.2 0.8-0.2 1.5-0.6 0.6-0.4 0.7-1.4 0-0.5 0.1-1.5 0-1 0.1-2.3 0.1-1.3 0.1-2.8 0-1.4 0-2.8 0.1-1.4 0.1-2.5 0-0.8-0.4-1.3-0.4-0.5-1-1-0.6-0.4-1.3-0.6-0.4 0-0.6-0.2-0.3-0.2-0.3-0.5 0-0.2 0.3-0.3 0.2-0.2 0.6-0.2 0.4 0 1.2 0.1 0.8 0 1.7 0 1 0.1 2 0.1 1 0 1.8 0 0.4 0 0.6 0.2 0.3 0.2 0.4 0.4l9.7 11.1q0.1 0.1 0.3 0.3 0.1 0.2 0.3 0.2 0.1 0 0.1-0.1 0.1-0.2 0.1-0.4l-0.2-7.9q-0.1-1.2-0.5-1.7-0.4-0.6-1.9-1-0.3 0-0.6-0.2-0.3-0.2-0.3-0.5 0-0.3 0.3-0.4 0.3-0.1 0.5-0.1 1 0 1.5 0 0.6 0 1 0.1 0.5 0 1.2 0 0.6 0 1 0 0.5-0.1 0.9-0.1 0.5 0 1.2 0 0.3 0 0.5 0.1 0.3 0.2 0.3 0.4 0 0.3-0.3 0.5-0.2 0.1-0.5 0.2-1.2 0.2-1.6 0.8-0.5 0.5-0.5 1.7l-0.4 13.8q0 1-0.3 1.5-0.3 0.6-0.7 0.6z"/><path fill-rule="evenodd" d="m68.4 188.6q-3 0-5.7-1-2.6-1-4.7-2.8-2-1.9-3.2-4.4-1.1-2.5-1.1-5.5 0-3 1.1-5.7 1.2-2.6 3.3-4.6 2.1-2.1 5-3.3 2.9-1.2 6.4-1.2 0.8 0 1.9 0.2 1.2 0.1 2.5 0.3 1.2 0.2 2.3 0.5 1.1 0.2 1.7 0.5 0.3 0.1 0.4 0.3 0.2 0.2 0.2 0.5 0.2 1.4 0.4 2.7 0.1 1.2 0.1 2.2 0 0.3-0.2 0.5-0.2 0.3-0.5 0.3-0.4 0-0.6-0.3-0.3-0.3-0.4-0.7-0.4-0.8-0.8-1.5-0.4-0.7-1-1.4-0.4-0.4-1.2-0.9-0.7-0.5-1.9-0.8-1.1-0.4-2.7-0.4-2.3 0-4.2 1-1.8 0.9-3.1 2.6-1.3 1.7-1.9 3.8-0.7 2.1-0.7 4.4 0 2.9 0.7 5.3 0.6 2.3 1.9 4 1.2 1.6 2.9 2.5 1.6 0.9 3.7 0.9 1.6 0 2.4-0.4 0.9-0.5 1.3-0.8 0.4-0.4 0.7-1.2 0.3-0.7 0.3-1.7 0-0.4 0-1 0.1-0.6 0.1-1.2 0-0.6 0-1 0-0.4-0.1-0.7-0.2-0.4-0.6-0.6-0.4-0.3-0.9-0.5-0.6-0.3-1.3-0.4-0.6-0.1-0.9-0.1-0.3-0.1-0.7-0.3-0.3-0.3-0.3-0.6 0-0.3 0.3-0.5 0.3-0.2 0.6-0.2 1 0 2 0.1 1 0 2 0.1 1.1 0 2 0 1.2 0 2.3-0.1 1.2-0.1 2.4-0.1 0.3 0 0.5 0.2 0.3 0.1 0.3 0.5 0 0.4-0.3 0.6-0.3 0.2-0.5 0.2-1.1 0.3-1.6 0.8-0.3 0.4-0.5 1.3-0.1 0.9-0.2 1.6-0.1 0.7-0.1 1.5v1.3q0 0.2 0.2 0.4 0.1 0.2 0.3 0.4 0.2 0.2 0.3 0.4 0.2 0.2 0.2 0.4 0 0.3-0.2 0.6-0.1 0.2-0.6 0.3-0.3 0-1.1 0.5-0.9 0.4-2.2 0.9-1.2 0.5-2.9 0.9-1.7 0.4-3.8 0.4zm35 0q-1.3 0-2.4-0.4-1-0.5-1.8-1.1-0.7-0.7-1.4-1.5-0.4-0.5-1-1.3-0.5-0.8-1-1.7-0.5-0.9-0.9-1.7-0.2-0.6-0.8-0.9-0.5-0.4-1.2-0.4-0.2 0-0.5 0.3-0.3 0.2-0.3 0.5v4.6q0 0.8 0.5 1.2 0.5 0.4 1.8 0.6 0.3 0 0.5 0.2 0.3 0.2 0.3 0.5 0 0.2-0.3 0.4-0.2 0.1-0.4 0.1-0.6 0-1.2 0-0.7 0-1.4 0-0.7 0-1.4 0-0.7-0.1-1.2-0.1-0.7 0-1.5 0.1-0.8 0-1.6 0-0.8 0.1-1.6 0.1-0.2 0-0.5-0.2-0.2-0.2-0.2-0.4 0-0.4 0.3-0.6 0.2-0.1 0.5-0.2 1.1-0.3 1.6-0.6 0.5-0.3 0.5-1.3v-12.5q0-0.9-0.4-1.3-0.4-0.5-1.5-0.6-0.4-0.1-0.7-0.3-0.2-0.2-0.2-0.5 0-0.3 0.3-0.5 0.2-0.1 0.5-0.1 1 0 1.7 0.1 0.7 0 1.3 0.1 0.7 0.1 1.5 0.1 1.2 0 2.5-0.2 1.3-0.1 3-0.1 2.3 0 4.1 0.5 1.8 0.4 2.8 1.5 1 1 1 2.7 0 1.2-0.5 2.2-0.5 0.9-1.3 1.5-0.8 0.6-1.7 0.9-0.5 0.2-0.3 0.6 0.5 0.9 1.2 2 0.7 1.1 1.4 2.1 0.8 1 1.5 1.7 0.4 0.5 1.1 1 0.8 0.5 1.4 0.7 0.7 0.3 1 0.4 0.2 0 0.5 0.1 0.3 0.1 0.3 0.5 0 0.3-0.6 0.6-0.4 0.3-1.3 0.4-0.8 0.2-2 0.2zm-9.8-10.5q1.9 0 2.9-0.9 1.1-0.9 1.1-3 0-1.3-0.6-2.1-0.5-0.8-1.4-1.2-0.8-0.4-1.8-0.4-0.7 0-1.2 0.3-0.6 0.2-0.6 1l0.1 4.9q0 0.8 0.5 1.1 0.5 0.3 1 0.3zm25.9 10.4q-3 0-5-1-1.9-1.1-2.8-3-1-1.9-1-4.4v-7.2q0-0.5-0.1-1.1-0.2-0.6-0.6-1-0.5-0.4-1.3-0.6-0.3-0.1-0.6-0.3-0.2-0.2-0.2-0.4 0-0.2 0.2-0.4 0.3-0.1 0.6-0.1 1.2 0 2.4 0.1 1.2 0 2.3 0 0.7 0 1.5 0 0.8 0 1.7 0 0.9-0.1 1.7-0.1 0.3 0 0.6 0.1 0.2 0.2 0.2 0.4 0 0.4-0.5 0.6-0.5 0.2-1 0.4-0.8 0.3-1.2 0.9-0.3 0.6-0.3 1.7v6.5q0 3.1 1.2 4.5 1.3 1.5 3.4 1.5 1.6 0 2.7-0.6 1.2-0.6 1.8-1.9 0.6-1.3 0.6-3.5v-5.4q0-1.4-0.1-2.2-0.2-0.7-0.6-1-0.4-0.4-1.2-0.7-0.3-0.2-0.8-0.3-0.4-0.1-0.4-0.5 0-0.2 0.2-0.4 0.3-0.1 0.7-0.1 0.9 0 1.4 0 0.5 0 0.9 0.1 0.4 0 1.1 0 0.7 0 1.1 0 0.4-0.1 0.9-0.1 0.4 0 1.2 0 0.3 0 0.5 0.1 0.3 0.1 0.3 0.4 0 0.2-0.3 0.4-0.2 0.2-0.5 0.3-1.3 0.4-1.7 1-0.4 0.7-0.4 1.9l-0.1 6.1q0 2.5-1 4.7-1 2.1-2.9 3.3-1.9 1.3-4.6 1.3zm14.7-0.4q-0.2 0-0.5-0.1-0.2-0.2-0.2-0.5 0-0.4 0.2-0.6 0.3-0.1 0.6-0.2 1.1-0.2 1.6-0.5 0.6-0.5 0.6-1.4v-12.5q0-1-0.5-1.4-0.5-0.3-1.7-0.6-0.3-0.1-0.5-0.2-0.2-0.2-0.2-0.5 0-0.3 0.2-0.5 0.3-0.1 0.5-0.1 0.7 0 1.5 0.1 0.9 0 1.7 0.1 0.9 0 1.5 0 0.7 0 1.4-0.1 0.6-0.1 1.5-0.1 0.8-0.1 2.1-0.1 2.5 0 4.3 0.6 1.8 0.6 2.7 1.8 1.1 1.3 1.1 3.3 0 3-2 4.8-1.9 1.8-5.3 1.8-0.7 0-1.2-0.3-0.5-0.2-0.5-0.6 0-0.3 0.1-0.4 0.2-0.2 0.5-0.2 0.3 0 0.6 0.1 0.3 0 0.5 0 0.9 0 1.5-1.1 0.6-1.2 0.6-3.2 0-2.5-1-3.8-0.9-1.4-2.3-1.4-0.7 0-1.3 0.4-0.5 0.3-0.5 1.1l-0.1 13.2q0 0.7 0.7 1.2 0.7 0.3 1.9 0.5 0.3 0.1 0.6 0.2 0.2 0.2 0.2 0.6 0 0.2-0.2 0.4-0.3 0.1-0.5 0.1-0.7 0-1.7 0-1 0-2 0-1-0.1-1.8-0.1-0.7 0-1.5 0.1-0.8 0-1.6 0-0.8 0.1-1.6 0.1zm32.5 0.4q-2.9 0-5.3-1.3-2.5-1.2-4-3.4-1.5-2.2-1.5-5 0-1.9 0.8-3.7 0.8-1.8 2.3-3.2 1.4-1.5 3.4-2.3 2-0.8 4.5-0.8 2.2 0 4.2 0.7 2 0.6 3.5 2 1.6 1.3 2.5 3 0.9 1.8 0.9 3.9 0 2.6-1.3 4.9-1.3 2.3-3.8 3.8-2.5 1.4-6.2 1.4zm0.5-1.8q1.4 0 2.4-0.6 0.9-0.7 1.5-1.8 0.6-1 0.8-2.4 0.3-1.4 0.3-2.9 0-2.3-0.6-4.3-0.7-1.9-2-3.1-1.2-1.2-3-1.2-1.6 0-2.7 1.1-1.1 1-1.7 2.7-0.5 1.7-0.5 3.8 0 2.5 0.6 4.5 0.7 2 1.9 3.1 1.2 1.1 3 1.1zm21.3 1.8q-1.5 0-2.7-0.3-1.2-0.3-2.3-0.7-0.3-0.1-0.4-0.3-0.2-0.1-0.3-0.3-0.2-0.5-0.4-1.3-0.1-0.7-0.2-1.5-0.1-0.8-0.1-1.8 0-0.3 0.2-0.6 0.2-0.4 0.5-0.4 0.5 0 0.7 0.4 0.2 0.3 0.3 0.6 0.5 1.2 1.2 2.2 0.7 1 1.6 1.7 1 0.7 2.2 0.7 1.6 0 2.3-0.8 0.7-0.7 0.7-1.7 0-0.8-0.5-1.5-0.5-0.7-1.8-1.4l-3-1.8q-1.6-1-2.6-2.2-1-1.3-1-3.2 0-1.8 1.1-3.1 1.1-1.2 2.8-1.8 1.7-0.6 3.5-0.6 1.3 0 2.5 0.2 1.2 0.2 1.8 0.4 0.4 0.1 0.5 0.2 0.2 0.2 0.4 0.7 0.1 0.6 0.1 1.5 0 0.9 0.1 2 0 0.3-0.2 0.6-0.2 0.2-0.5 0.2-0.3 0-0.6-0.2-0.3-0.3-0.4-0.6-0.3-1.3-0.9-2.1-0.7-0.8-1.5-1.1-0.7-0.3-1.5-0.3-1.3 0-2 0.7-0.7 0.7-0.7 1.5 0 1 0.5 1.6 0.7 0.7 1.9 1.4l3.4 2q1.5 0.8 2.3 2.2 0.8 1.3 0.8 3 0 1.3-0.8 2.7-0.9 1.3-2.7 2.2-1.7 0.9-4.3 0.9zm-167.5 54.7q-0.4 0-0.7-0.2-0.3-0.1-0.3-0.4 0-0.6 1.1-0.8 1.6-0.4 2.1-0.9 0.7-0.6 0.7-2v-18.5q0-1.6-0.6-2.3-0.5-0.8-2-1.1-0.6-0.2-0.8-0.4-0.3-0.2-0.3-0.5 0-0.3 0.3-0.4 0.3-0.2 0.7-0.2 1.2 0 2.3 0.1 1.1 0 2.1 0.1 1.1 0 2.2 0 1.5 0 3.3 0 1.8 0 3.4 0 1.6 0 2.8-0.2 1.3-0.3 2.2-0.3 0.2 0 0.5 0.2 0.4 0.1 0.4 0.5 0.1 0.8 0.1 1.8 0.1 1 0.1 1.9 0 1 0 1.5 0 0.9-0.4 0.9-0.2 0-0.5-0.2-0.2-0.2-0.3-0.5-0.2-0.9-0.6-1.6-0.3-0.8-0.7-1.2-0.6-0.6-1.3-0.9-0.7-0.2-1.7-0.2h-3.8q-1 0-1.5 0.6-0.5 0.5-0.5 1.4 0 0.8 0 1.8 0 1.1 0 2 0 0.9 0 2 0 1.1 0 2 0 0.4 0.2 0.7 0.2 0.3 0.6 0.3 1.1 0 2.3-0.1 1.1 0 2 0 1 0 1.6-0.6 0.6-0.6 0.9-1.4 0.2-0.3 0.4-0.5 0.2-0.2 0.4-0.2 0.2 0 0.4 0.2 0.2 0.2 0.2 0.6-0.1 0.8-0.2 1.5 0 0.7 0 1.3 0 0.7 0 1.3 0.1 0.6 0.1 1.6 0.1 0.4 0 0.7-0.1 0.2-0.4 0.2-0.3 0-0.6-0.3-0.3-0.3-0.3-0.7-0.4-1.1-0.9-1.5-0.5-0.4-1.2-0.4-0.5 0-1.1 0-0.5-0.1-0.9-0.1-0.7 0-1.3 0-0.7 0-1.3 0.1-0.4 0-0.7 0.2-0.3 0.3-0.3 0.8 0 1.9 0 3.9 0.1 2 0.1 4 0.1 1.3 0.7 2 0.7 0.6 2.4 1 0.5 0.1 0.8 0.3 0.2 0.1 0.2 0.5 0 0.3-0.2 0.4-0.2 0.1-0.7 0.1-0.9 0-2-0.1-1 0-2 0-0.9-0.1-1.7-0.1-0.9 0-1.9 0.1-0.9 0-2 0.1-0.9 0.1-1.9 0.1zm32.2 0q-0.3 0-0.6-0.2-0.2-0.2-0.2-0.4 0-0.4 0.2-0.5 0.3-0.2 0.6-0.3 1.2-0.2 1.6-0.7 0.4-0.5 0.1-1.4l-0.7-1.9q0-0.3-0.2-0.3-0.1-0.2-0.5-0.2h-5.8q-0.3 0-0.4 0.2-0.1 0.1-0.2 0.3-0.4 0.8-0.5 1.3-0.2 0.5-0.3 1-0.1 0.8 0.2 1.1 0.4 0.4 1.6 0.7 0.4 0 0.6 0.2 0.3 0.1 0.3 0.5 0 0.2-0.3 0.4-0.3 0.1-0.5 0.1-0.9 0-1.5-0.1-0.6 0-1.1 0-0.5 0-1.2 0-0.6 0-1.1 0-0.4 0-0.9 0.1-0.5 0-1.3 0-0.3 0-0.5-0.1-0.3-0.1-0.3-0.4 0-0.4 0.2-0.5 0.3-0.1 0.6-0.2 0.6-0.1 1.1-0.3 0.5-0.2 1-0.6 0.4-0.4 0.7-1.2l4.9-11.5q0.4-1.1 0.4-1.7 0-0.6 0.2-0.7 0.4-0.2 1.1-0.7 0.8-0.4 1.4-0.8 0.7-0.4 1-0.5 0.5-0.3 0.8-0.5 0.3-0.1 0.5-0.1 0.2 0 0.3 0.3 0.1 0.2 0.2 0.5l5.6 15.5q0.4 0.8 0.8 1.5 0.5 0.6 1.6 0.8 0.3 0 0.5 0.1 0.3 0.2 0.3 0.5 0 0.3-0.2 0.4-0.2 0.1-0.5 0.1-1.2 0-2.4 0-1.2-0.1-2.2-0.1-0.7 0-1.6 0.1-0.8 0-1.7 0.1-0.9 0.1-1.7 0.1zm-4.6-7.6h4.3q0.3 0 0.4-0.1 0.1-0.1 0-0.4-0.1-0.6-0.4-1.4-0.3-0.9-0.7-1.7-0.3-1-0.6-1.9-0.3-0.8-0.5-1.5-0.2-0.3-0.3-0.3 0 0-0.2 0.3-0.6 1.4-1.2 3.1-0.7 1.8-1.2 3.4-0.1 0.2-0.1 0.3 0.1 0.2 0.5 0.2zm30 7.8q-0.5 0-1-1-1.6-3-2.9-5.9-1.3-2.9-2.7-5.8-0.3-0.6-0.4-0.5-0.2 0-0.3 0.5-0.1 0.9-0.3 2.5-0.2 1.5-0.3 3.2-0.1 1.7-0.2 3.1 0 0.9 0.4 1.5 0.5 0.7 1.7 0.8 0.4 0 0.6 0.2 0.3 0.2 0.3 0.5 0 0.2-0.3 0.4-0.2 0.1-0.4 0.1-0.9 0-1.3 0-0.4 0-0.7 0-0.3-0.1-0.9-0.1-0.7 0-1.5 0.1-0.7 0-1.3 0-0.6 0.1-1.1 0.1-0.2 0-0.5-0.1-0.2-0.2-0.2-0.5 0-0.3 0.3-0.4 0.3-0.2 0.6-0.2 0.9-0.2 1.4-0.8 0.6-0.6 0.8-1.7 0.1-0.7 0.3-2 0.2-1.3 0.5-2.8 0.3-1.6 0.5-3.1 0.2-1.5 0.3-2.7 0.2-1.2 0.2-1.7 0-0.9-0.6-1.3-0.6-0.4-1.8-0.6-0.4-0.1-0.7-0.3-0.3-0.2-0.3-0.5 0-0.2 0.3-0.3 0.3-0.2 0.5-0.2 0.8 0 1.5 0 0.7 0 1.5 0.1 0.8 0 2 0 0.6 0 0.8 0.1 0.3 0.1 0.5 0.2 0.3 0.3 0.4 0.6 0.2 0.2 0.4 0.5l5.2 10.7q0.2 0.4 0.3 0.4 0.2 0 0.3-0.3 1.8-3.8 2.9-6.3 1.1-2.6 1.8-4.3 0.2-0.5 0.4-0.9 0.2-0.4 0.4-0.4l1.3-0.1q1.5 0 2.8-0.1 1.3-0.2 2.2-0.2 0.4 0 0.6 0.2 0.3 0.1 0.3 0.4 0 0.3-0.2 0.5-0.3 0.2-0.7 0.3-1.1 0.2-1.7 0.8-0.6 0.5-0.6 1.7 0.1 1.7 0.2 2.9 0 1.2 0 2.3 0.1 1 0.1 2 0.1 1 0.2 2.2 0 1.2 0.2 2.8 0 0.8 0.6 1.2 0.5 0.4 1.5 0.6 0.3 0 0.5 0.2 0.4 0.2 0.4 0.5 0 0.2-0.3 0.4-0.3 0.1-0.6 0.1-0.6 0-1.5 0-0.8 0-1.7 0-0.9-0.1-1.5-0.1-0.7 0-1.6 0.1-0.8 0-1.7 0-0.9 0.1-1.5 0.1-0.3 0-0.6-0.1-0.2-0.2-0.2-0.5 0-0.3 0.2-0.5 0.3-0.1 0.7-0.2 1-0.1 1.5-0.5 0.5-0.4 0.5-1.4-0.1-1.4-0.1-2.9 0-1.5-0.1-3.1 0-1.6-0.1-3.2-0.1-0.4-0.2-0.4-0.2 0-0.4 0.4l-5 11.6q-0.3 0.6-0.5 0.8-0.2 0.3-0.4 0.3zm18.8-0.3q-0.3 0-0.5-0.1-0.3-0.2-0.3-0.5 0-0.3 0.3-0.5 0.2-0.1 0.5-0.2 1-0.2 1.5-0.5 0.6-0.4 0.6-1.4v-12.3q0-1.1-0.4-1.6-0.4-0.5-1.6-0.7-0.4-0.1-0.6-0.2-0.2-0.2-0.2-0.6 0-0.3 0.2-0.4 0.3-0.1 0.6-0.1 0.6 0 1.4 0 0.9 0.1 1.7 0.1 0.8 0 1.5 0 0.6 0 1.5 0 0.8 0 1.7 0 0.9-0.1 1.6-0.1 0.3 0 0.5 0.1 0.2 0.2 0.2 0.4 0 0.3-0.2 0.5-0.3 0.1-0.6 0.3-0.9 0.2-1.3 0.5-0.4 0.3-0.5 0.7-0.2 0.5-0.2 1.1v12.2q0 1 0.6 1.4 0.5 0.3 1.4 0.6 0.3 0.1 0.6 0.2 0.3 0.2 0.3 0.5 0 0.3-0.3 0.4-0.2 0.1-0.4 0.1-0.7 0-1.6 0-0.9 0-1.7 0-0.9-0.1-1.6-0.1-0.7 0-1.6 0.1-0.8 0-1.6 0-0.8 0.1-1.5 0.1zm13.8 0q-0.2 0-0.4-0.1-0.3-0.2-0.3-0.4 0-0.2 0.3-0.4 0.2-0.2 0.5-0.3 1-0.3 1.6-0.6 0.5-0.3 0.5-1.3v-12.2q0-1.1-0.4-1.6-0.4-0.5-1.7-0.9-0.3-0.1-0.6-0.2-0.2-0.2-0.2-0.6 0-0.3 0.3-0.4 0.2-0.1 0.5-0.1 0.7 0 1.5 0 0.8 0.1 1.6 0.1 0.9 0 1.5 0 0.7 0 1.5 0 0.8 0 1.7 0 0.9-0.1 1.5-0.1 0.3 0 0.5 0.1 0.2 0.2 0.2 0.4 0 0.4-0.3 0.6-0.2 0.1-0.5 0.2-1.1 0.2-1.4 0.9-0.4 0.6-0.4 1.7v11.8q0 0.9 0.3 1.2 0.3 0.3 0.9 0.3h3.1q0.9 0 1.6-0.3 0.6-0.3 1.2-1 0.5-0.7 1.2-2 0.1-0.3 0.3-0.4 0.2-0.3 0.4-0.3 0.4 0 0.4 0.3 0.1 0.2 0.1 0.5 0 0.2-0.1 0.8-0.2 0.7-0.4 1.4-0.2 0.8-0.4 1.5-0.2 0.6-0.2 0.8-0.1 0.2-0.3 0.4-0.2 0.2-0.5 0.2-0.7 0-2 0-1.3-0.1-2.8-0.1-1.5 0-3 0-1.5 0-2.9 0-0.9 0-2 0-1.1 0.1-2.4 0.1zm20.4 0q-0.2 0-0.5-0.1-0.2-0.2-0.2-0.5 0-0.3 0.2-0.5 0.3-0.1 0.6-0.2 0.9-0.2 1.5-0.5 0.6-0.4 0.6-1.4v-12.3q0-1.1-0.5-1.6-0.4-0.5-1.5-0.7-0.4-0.1-0.7-0.2-0.2-0.2-0.2-0.6 0-0.3 0.3-0.4 0.2-0.1 0.5-0.1 0.7 0 1.5 0 0.8 0.1 1.6 0.1 0.9 0 1.5 0 0.7 0 1.5 0 0.9 0 1.8 0 0.9-0.1 1.5-0.1 0.3 0 0.5 0.1 0.3 0.2 0.3 0.4 0 0.3-0.3 0.5-0.2 0.1-0.6 0.3-0.8 0.2-1.3 0.5-0.4 0.3-0.5 0.7-0.1 0.5-0.1 1.1v12.2q0 1 0.5 1.4 0.6 0.3 1.4 0.6 0.4 0.1 0.6 0.2 0.3 0.2 0.3 0.5 0 0.3-0.2 0.4-0.3 0.1-0.5 0.1-0.7 0-1.5 0-0.9 0-1.8 0-0.9-0.1-1.6-0.1-0.7 0-1.5 0.1-0.8 0-1.6 0-0.8 0.1-1.6 0.1zm25.1 0.1q-0.4 0-0.6-0.2-0.3-0.2-0.3-0.4 0-0.4 0.3-0.5 0.2-0.2 0.6-0.3 1.2-0.2 1.6-0.7 0.4-0.5 0.1-1.4l-0.7-1.9q0-0.3-0.2-0.3-0.1-0.2-0.5-0.2h-5.8q-0.3 0-0.4 0.2-0.1 0.1-0.2 0.3-0.4 0.8-0.6 1.3-0.1 0.5-0.2 1-0.1 0.8 0.2 1.1 0.4 0.4 1.6 0.7 0.4 0 0.6 0.2 0.2 0.1 0.2 0.5 0 0.2-0.2 0.4-0.3 0.1-0.6 0.1-0.8 0-1.4-0.1-0.6 0-1.1 0-0.5 0-1.2 0-0.6 0-1.1 0-0.4 0-0.9 0.1-0.5 0-1.3 0-0.3 0-0.6-0.1-0.3-0.1-0.3-0.4 0-0.4 0.3-0.5 0.3-0.1 0.5-0.2 0.7-0.1 1.2-0.3 0.5-0.2 0.9-0.6 0.5-0.4 0.8-1.2l4.9-11.5q0.4-1.1 0.4-1.7 0-0.6 0.2-0.7 0.4-0.2 1.1-0.7 0.7-0.4 1.4-0.8 0.7-0.4 0.9-0.5 0.5-0.3 0.8-0.5 0.4-0.1 0.5-0.1 0.3 0 0.4 0.3 0.1 0.2 0.2 0.5l5.6 15.5q0.4 0.8 0.8 1.5 0.5 0.6 1.6 0.8 0.3 0 0.5 0.1 0.3 0.2 0.3 0.5 0 0.3-0.2 0.4-0.3 0.1-0.5 0.1-1.2 0-2.4 0-1.2-0.1-2.3-0.1-0.6 0-1.5 0.1-0.8 0-1.7 0.1-0.9 0.1-1.7 0.1zm-4.6-7.6h4.3q0.3 0 0.4-0.1 0.1-0.1 0-0.4-0.2-0.6-0.5-1.4-0.3-0.9-0.6-1.7-0.4-1-0.7-1.9-0.3-0.8-0.5-1.5-0.1-0.3-0.2-0.3-0.1 0-0.2 0.3-0.6 1.4-1.2 3.1-0.7 1.8-1.3 3.4 0 0.2 0 0.3 0.1 0.2 0.5 0.2zm36.5 8q-1.4 0-2.4-0.4-1-0.5-1.8-1.1-0.8-0.7-1.5-1.5-0.4-0.5-0.9-1.3-0.5-0.8-1-1.7-0.5-0.9-0.9-1.7-0.3-0.6-0.8-0.9-0.5-0.4-1.2-0.4-0.3 0-0.6 0.3-0.3 0.2-0.3 0.5v4.6q0 0.8 0.5 1.2 0.5 0.4 1.8 0.6 0.3 0 0.5 0.2 0.3 0.2 0.3 0.5 0 0.2-0.2 0.4-0.3 0.1-0.5 0.1-0.5 0-1.2 0-0.7 0-1.4 0-0.7 0-1.4 0-0.7-0.1-1.2-0.1-0.7 0-1.5 0.1-0.8 0-1.6 0-0.8 0.1-1.6 0.1-0.2 0-0.5-0.2-0.2-0.2-0.2-0.4 0-0.4 0.3-0.6 0.2-0.1 0.5-0.2 1.2-0.3 1.7-0.6 0.5-0.3 0.5-1.3v-12.5q0-0.9-0.5-1.3-0.4-0.5-1.5-0.6-0.4-0.1-0.6-0.3-0.2-0.2-0.2-0.5 0-0.3 0.2-0.5 0.3-0.1 0.6-0.1 0.9 0 1.6 0.1 0.7 0 1.4 0.1 0.6 0.1 1.4 0.1 1.2 0 2.5-0.2 1.4-0.1 3-0.1 2.4 0 4.1 0.5 1.8 0.4 2.8 1.5 1 1 1 2.7 0 1.2-0.5 2.2-0.5 0.9-1.3 1.5-0.8 0.6-1.7 0.9-0.4 0.2-0.2 0.6 0.4 0.9 1.1 2 0.7 1.1 1.5 2.1 0.8 1 1.4 1.7 0.5 0.5 1.2 1 0.7 0.5 1.3 0.7 0.7 0.3 1 0.4 0.2 0 0.5 0.1 0.3 0.1 0.3 0.5 0 0.3-0.5 0.6-0.5 0.3-1.4 0.4-0.8 0.2-1.9 0.2zm-9.9-10.5q1.9 0 3-0.9 1.1-0.9 1-3 0-1.3-0.5-2.1-0.6-0.8-1.5-1.2-0.8-0.4-1.8-0.4-0.7 0-1.2 0.3-0.5 0.2-0.5 1v4.9q0 0.8 0.5 1.1 0.5 0.3 1 0.3zm16.1 10q-0.2 0-0.5-0.1-0.2-0.3-0.2-0.5 0-0.3 0.3-0.5 0.3-0.2 0.6-0.3 0.9-0.2 1.4-0.5 0.5-0.3 0.5-1.3v-12.2q0-1.1-0.3-1.6-0.4-0.5-1.6-0.7-0.3-0.1-0.6-0.3-0.2-0.2-0.2-0.5 0-0.3 0.3-0.5 0.2-0.1 0.5-0.1 0.6 0 1.2 0 0.7 0.1 1.4 0.1 0.6 0 1.1 0 1.6 0 3.2 0 1.7 0 3.2 0 1.6 0 2.7 0 1.2-0.1 1.6-0.1 0.2 0 0.4 0.1 0.3 0.2 0.3 0.5 0.1 1.2 0.3 2.2 0.2 1.1 0.2 1.8 0 0.2-0.1 0.4-0.1 0.2-0.2 0.2-0.2 0-0.5-0.1-0.2-0.2-0.3-0.6-0.6-1.3-1.2-2.1-0.5-0.7-1.9-0.7h-2.9q-0.4 0-0.8 0.2-0.5 0.3-0.5 1v4.9q0 0.4 0.2 0.6 0.3 0.3 0.6 0.3h2.4q0.7 0 1.1-0.5 0.4-0.4 0.7-1.4 0.2-0.3 0.3-0.4 0.2-0.2 0.4-0.2 0.2 0 0.3 0.2 0.2 0.2 0.1 0.5-0.1 0.8-0.1 1.4 0 0.6 0 1.3 0 0.6 0 1.1 0 0.4 0.1 1.3 0.1 0.4-0.1 0.7-0.1 0.2-0.3 0.2-0.2 0-0.4-0.3-0.2-0.3-0.4-0.6-0.2-0.9-0.5-1.3-0.4-0.4-1-0.4-0.6 0-1.3 0-0.7 0-1.3 0-0.4 0-0.6 0.2-0.2 0.1-0.2 0.5v4.9q0 0.8 0.3 1.1 0.2 0.3 1 0.3h3.3q1.4 0 2.4-0.9 1-0.9 1.4-2.1 0.1-0.3 0.2-0.4 0.2-0.2 0.5-0.2 0.2 0 0.3 0.2 0.1 0.2 0.1 0.5 0 0.9-0.3 1.9-0.3 0.9-0.6 2.1-0.1 0.3-0.3 0.5-0.3 0.2-0.7 0.2-0.8 0-2-0.1-1.2 0-2.7 0-1.4 0-2.9 0-1.4 0-2.8 0-0.7 0-1.5 0-0.8 0-1.6 0.1-0.8 0-1.5 0zm26.9 0.4q-1.5 0-2.7-0.3-1.2-0.3-2.3-0.7-0.3-0.1-0.4-0.3-0.2-0.1-0.3-0.3-0.2-0.5-0.4-1.3-0.1-0.7-0.2-1.5-0.1-0.8-0.1-1.8 0-0.3 0.2-0.6 0.2-0.4 0.5-0.4 0.5 0 0.7 0.4 0.2 0.3 0.3 0.6 0.5 1.2 1.2 2.2 0.7 1 1.6 1.7 1 0.7 2.2 0.7 1.6 0 2.3-0.8 0.7-0.7 0.7-1.7 0-0.8-0.5-1.5-0.5-0.7-1.8-1.4l-3-1.8q-1.6-1-2.6-2.2-1-1.3-1-3.2 0-1.8 1.1-3.1 1.1-1.2 2.8-1.8 1.7-0.6 3.5-0.6 1.3 0 2.5 0.2 1.2 0.2 1.8 0.4 0.4 0.1 0.5 0.2 0.2 0.2 0.4 0.7 0.1 0.6 0.1 1.5 0 0.9 0.1 2 0 0.3-0.2 0.5-0.2 0.3-0.5 0.3-0.3 0-0.6-0.2-0.3-0.3-0.4-0.6-0.3-1.3-0.9-2.1-0.7-0.8-1.5-1.1-0.7-0.3-1.5-0.3-1.3 0-2 0.7-0.7 0.7-0.7 1.5 0 1 0.5 1.6 0.7 0.7 1.9 1.4l3.4 2q1.5 0.8 2.3 2.2 0.8 1.3 0.8 3 0 1.3-0.8 2.7-0.9 1.3-2.7 2.2-1.7 0.9-4.3 0.9z"/><path fill-rule="evenodd" d="m416 247.5q-2.4 0-4.6-0.7-2.1-0.7-3.7-2-1.6-1.2-2.5-3-0.9-1.8-0.9-3.9 0-2 0.9-3.8 0.9-1.9 2.4-3.3 1.7-1.4 4-2.2 2.3-0.9 5.1-0.9 0.9 0 2 0.2 1 0.2 1.9 0.4 1 0.2 1.7 0.5 0.3 0.1 0.4 0.2 0.2 0.1 0.3 0.4 0.2 1 0.2 2.1 0.1 1.1 0.1 1.5 0 0.5-0.3 0.6-0.3 0.1-0.7 0-0.3-0.2-0.5-0.5-0.4-1.3-1-2.1-0.7-0.8-1.7-1.3-1-0.4-2.8-0.4-1.9 0-3.4 1.1-1.3 1.1-2.1 2.9-0.8 1.7-0.8 3.7 0 2.6 0.8 4.6 0.7 2 2.1 3.1 1.5 1.1 3.7 1.1 1.3 0 2.4-0.4 1.1-0.5 2-1.3 0.8-0.9 1.3-2.2 0.3-0.6 0.8-0.7 0.7 0 0.7 0.5 0 0.5-0.2 1 0 0.6-0.2 1.2-0.2 0.7-0.4 1.5-0.1 0.2-0.3 0.5-0.2 0.2-0.5 0.3-1 0.5-2.7 0.9-1.6 0.4-3.5 0.4zm22.4 0q-2.9 0-5.4-1.3-2.4-1.2-3.9-3.4-1.5-2.2-1.5-5 0-1.9 0.8-3.7 0.8-1.8 2.2-3.2 1.5-1.5 3.5-2.3 2-0.8 4.5-0.8 2.2 0 4.1 0.7 2.1 0.6 3.6 2 1.6 1.3 2.5 3 0.9 1.8 0.9 3.9 0 2.6-1.3 4.9-1.3 2.3-3.8 3.8-2.5 1.4-6.2 1.4zm0.5-1.8q1.4 0 2.3-0.6 1-0.7 1.6-1.8 0.6-1 0.8-2.4 0.3-1.4 0.3-2.9 0-2.3-0.6-4.3-0.7-1.9-2-3.1-1.2-1.2-3-1.2-1.6 0-2.7 1.1-1.1 1-1.7 2.7-0.5 1.7-0.5 3.8 0 2.5 0.6 4.5 0.6 2 1.9 3.1 1.2 1.1 3 1.1zm26.6 1.7q-0.5 0-0.9-1-1.6-3-2.9-5.9-1.4-2.9-2.8-5.8-0.2-0.6-0.4-0.5-0.1 0-0.2 0.5-0.2 0.9-0.3 2.5-0.2 1.5-0.3 3.2-0.2 1.7-0.2 3.1 0 0.9 0.4 1.5 0.4 0.7 1.6 0.8 0.4 0 0.7 0.2 0.2 0.2 0.2 0.5 0 0.2-0.2 0.4-0.3 0.1-0.5 0.1-0.9 0-1.2 0-0.4 0-0.7 0-0.3-0.1-1-0.1-0.7 0-1.4 0.1-0.7 0-1.3 0-0.7 0.1-1.1 0.1-0.3 0-0.5-0.1-0.2-0.2-0.2-0.5 0-0.3 0.2-0.4 0.4-0.2 0.6-0.2 0.9-0.2 1.5-0.8 0.6-0.6 0.8-1.7 0.1-0.7 0.3-2 0.2-1.3 0.5-2.8 0.2-1.6 0.4-3.1 0.2-1.5 0.4-2.7 0.1-1.2 0.2-1.7 0-0.9-0.7-1.3-0.6-0.4-1.7-0.6-0.4-0.1-0.7-0.3-0.3-0.2-0.3-0.5 0-0.2 0.3-0.3 0.2-0.2 0.5-0.2 0.8 0 1.5 0 0.6 0 1.4 0.1 0.9 0 2.1 0 0.5 0 0.8 0.1 0.3 0.1 0.5 0.2 0.2 0.3 0.4 0.6 0.1 0.2 0.4 0.5l5.2 10.7q0.1 0.4 0.3 0.4 0.2 0 0.3-0.3 1.7-3.8 2.8-6.3 1.1-2.6 1.9-4.3 0.2-0.5 0.4-0.9 0.2-0.4 0.4-0.4l1.3-0.1q1.4 0 2.7-0.1 1.4-0.2 2.3-0.2 0.3 0 0.6 0.2 0.3 0.1 0.3 0.4 0 0.3-0.3 0.5-0.2 0.2-0.6 0.3-1.2 0.2-1.8 0.8-0.6 0.5-0.5 1.7 0.1 1.7 0.1 2.9 0.1 1.2 0.1 2.3 0 1 0.1 2 0 1 0.1 2.2 0.1 1.2 0.2 2.8 0.1 0.8 0.7 1.2 0.5 0.4 1.5 0.6 0.2 0 0.5 0.2 0.3 0.2 0.3 0.5 0 0.2-0.2 0.4-0.3 0.1-0.6 0.1-0.7 0-1.5 0-0.9 0-1.8 0-0.8-0.1-1.4-0.1-0.8 0-1.6 0.1-0.9 0-1.8 0-0.8 0.1-1.5 0.1-0.2 0-0.5-0.1-0.3-0.2-0.3-0.5 0-0.3 0.3-0.5 0.3-0.1 0.6-0.2 1-0.1 1.5-0.5 0.5-0.4 0.5-1.4 0-1.4-0.1-2.9 0-1.5 0-3.1-0.1-1.6-0.2-3.2 0-0.4-0.2-0.4-0.1 0-0.3 0.4l-5.1 11.6q-0.2 0.6-0.5 0.8-0.2 0.3-0.4 0.3zm29.6 0.1q-3.1 0-5-1-1.9-1.1-2.9-3-0.9-1.9-0.9-4.4v-7.2q0-0.5-0.1-1.1-0.2-0.6-0.7-1-0.4-0.4-1.2-0.6-0.4-0.1-0.6-0.3-0.2-0.2-0.2-0.4 0-0.2 0.2-0.4 0.3-0.1 0.6-0.1 1.2 0 2.4 0.1 1.2 0 2.2 0 0.7 0 1.6 0 0.8 0 1.7 0 0.8-0.1 1.7-0.1 0.3 0 0.5 0.1 0.3 0.2 0.3 0.4 0 0.4-0.6 0.6-0.5 0.2-0.9 0.4-0.9 0.3-1.2 0.9-0.3 0.6-0.3 1.7v6.5q0 3.1 1.2 4.5 1.3 1.5 3.3 1.5 1.6 0 2.8-0.6 1.2-0.6 1.8-1.9 0.6-1.3 0.6-3.5v-5.4q0-1.4-0.2-2.2-0.1-0.7-0.5-1-0.4-0.4-1.2-0.7-0.4-0.1-0.8-0.3-0.4-0.1-0.4-0.5 0-0.2 0.2-0.4 0.3-0.1 0.7-0.1 0.9 0 1.4 0 0.5 0 0.8 0.1 0.5 0 1.2 0 0.7 0 1.1 0 0.4-0.1 0.9-0.1 0.4 0 1.2 0 0.3 0 0.5 0.1 0.3 0.1 0.3 0.4 0 0.2-0.3 0.4-0.2 0.2-0.5 0.3-1.3 0.4-1.7 1-0.4 0.7-0.5 1.9v6.1q0 2.5-1 4.7-1 2.1-3 3.3-1.9 1.3-4.5 1.3zm33.6 0.1q-0.7 0-1.2-0.2-0.5-0.1-1-0.5-0.4-0.4-1-1.1l-10.1-11.8q-0.2-0.4-0.5-0.6-0.2-0.2-0.4-0.2-0.1 0-0.2 0.3 0 0.2 0 0.6 0 1.5 0 3.3 0.1 1.7 0.1 3.4 0.1 1.7 0.2 2.8 0.1 1 0.6 1.5 0.5 0.4 1.8 0.7 0.3 0 0.6 0.2 0.3 0.2 0.3 0.5 0 0.3-0.3 0.4-0.2 0.1-0.4 0.1-1.3 0-1.9 0-0.6-0.1-1.6-0.1-1.1 0-2 0.1-0.9 0.1-1.8 0.1-0.2 0-0.5-0.1-0.2-0.2-0.2-0.5 0-0.3 0.2-0.4 0.3-0.2 0.6-0.2 0.8-0.2 1.5-0.6 0.6-0.4 0.7-1.4 0-0.5 0.1-1.5 0-1 0.1-2.3 0.1-1.3 0.1-2.8 0.1-1.4 0.1-2.8 0-1.4 0-2.5 0-0.7-0.4-1.3-0.4-0.5-1-1-0.6-0.4-1.3-0.5-0.4-0.1-0.6-0.3-0.3-0.2-0.3-0.5 0-0.2 0.3-0.3 0.2-0.2 0.6-0.2 0.4 0 1.2 0.1 0.8 0 1.7 0 1 0.1 2 0.1 1 0 1.8 0 0.4 0 0.6 0.2 0.3 0.2 0.4 0.4l9.7 11.1q0.1 0.1 0.3 0.3 0.2 0.2 0.3 0.2 0.1 0 0.1-0.1 0.1-0.2 0.1-0.4l-0.2-7.9q-0.1-1.2-0.5-1.7-0.4-0.6-1.9-1-0.3-0.1-0.6-0.2-0.3-0.2-0.3-0.5 0-0.3 0.3-0.4 0.3-0.1 0.5-0.1 1 0 1.5 0 0.6 0 1 0.1 0.5 0 1.2 0 0.6 0 1 0 0.5-0.1 0.9-0.1 0.5 0 1.2 0 0.3 0 0.6 0.1 0.2 0.2 0.2 0.4 0 0.3-0.2 0.5-0.3 0.1-0.6 0.2-1.2 0.2-1.6 0.8-0.5 0.5-0.5 1.7l-0.4 13.8q0 1-0.3 1.5-0.3 0.6-0.7 0.6zm7.6-0.5q-0.3 0-0.5-0.1-0.3-0.2-0.3-0.5 0-0.3 0.3-0.5 0.2-0.1 0.5-0.2 1-0.2 1.5-0.5 0.6-0.4 0.6-1.4v-12.3q0-1.1-0.4-1.6-0.5-0.5-1.6-0.7-0.4-0.1-0.6-0.2-0.2-0.2-0.2-0.6 0-0.3 0.2-0.4 0.3-0.1 0.6-0.1 0.6 0 1.4 0 0.9 0.1 1.7 0.1 0.8 0 1.4 0 0.7 0 1.6 0 0.8 0 1.7 0 0.9-0.1 1.6-0.1 0.3 0 0.5 0.1 0.2 0.2 0.2 0.4 0 0.3-0.2 0.5-0.3 0.1-0.6 0.3-0.9 0.2-1.3 0.5-0.4 0.3-0.6 0.7-0.1 0.5-0.1 1.1v12.2q0 1 0.6 1.4 0.5 0.3 1.4 0.6 0.3 0.1 0.6 0.2 0.3 0.2 0.3 0.5 0 0.3-0.3 0.4-0.2 0.1-0.4 0.1-0.7 0-1.6 0-0.9 0-1.8 0-0.8-0.1-1.6-0.1-0.6 0-1.5 0.1-0.8 0-1.6 0-0.8 0.1-1.5 0.1zm13.8 0.1q-0.3 0-0.6-0.2-0.3-0.2-0.3-0.4 0-0.3 0.3-0.5 0.3-0.2 0.6-0.2 1-0.2 1.6-0.6 0.5-0.4 0.5-1.3v-12.4q0-1.1-0.4-1.6-0.4-0.5-1.6-0.7-0.3-0.1-0.6-0.3-0.2-0.2-0.2-0.5 0-0.2 0.2-0.4 0.3-0.1 0.5-0.1 0.8 0 1.6 0 0.8 0.1 1.6 0.1 0.8 0.1 1.3 0.1 0.5 0 1.3-0.1 1 0 1.9-0.1 0.9-0.1 1.5-0.1 3.8 0 6.5 0.9 2.8 0.8 4.2 2.8 1.6 2 1.6 5.6 0 3.2-1.8 5.4-1.6 2.2-4.4 3.4-2.8 1.2-6.2 1.2-0.7 0-1.6-0.1-0.9-0.1-1.7-0.1-0.9 0-1.6 0-0.6 0-1.3 0-0.8 0-1.6 0.1-0.7 0.1-1.3 0.1zm9.9-1.5q1.9 0 3.2-1 1.3-1 1.9-2.7 0.7-1.8 0.7-3.9 0-2.6-0.7-4.5-0.6-2-2-3.1-1.4-1.1-3.6-1.1-0.8 0-1.4 0.5-0.6 0.6-0.6 1.4v12q0 1.1 0.6 1.8 0.6 0.6 1.9 0.6zm26 1.5q-0.3 0-0.6-0.2-0.2-0.2-0.2-0.4 0-0.4 0.2-0.5 0.3-0.2 0.6-0.3 1.2-0.2 1.6-0.7 0.4-0.5 0.1-1.4l-0.6-1.9q-0.1-0.3-0.3-0.3-0.1-0.2-0.5-0.2h-5.8q-0.2 0-0.4 0.2-0.1 0.1-0.2 0.3-0.4 0.8-0.5 1.3-0.2 0.5-0.3 1-0.1 0.8 0.2 1.1 0.4 0.4 1.6 0.7 0.4 0 0.6 0.2 0.3 0.1 0.3 0.5 0 0.2-0.3 0.4-0.2 0.1-0.5 0.1-0.9 0-1.5-0.1-0.6 0-1.1 0-0.5 0-1.2 0-0.6 0-1.1 0-0.4 0-0.9 0.1-0.5 0-1.2 0-0.3 0-0.6-0.1-0.3-0.1-0.3-0.4 0-0.4 0.2-0.5 0.3-0.1 0.6-0.2 0.6-0.1 1.1-0.3 0.5-0.2 1-0.6 0.4-0.4 0.7-1.2l4.9-11.5q0.5-1.1 0.5-1.7 0-0.6 0.1-0.7 0.4-0.2 1.1-0.7 0.8-0.4 1.4-0.8 0.7-0.4 1-0.5 0.5-0.3 0.8-0.5 0.3-0.1 0.5-0.1 0.2 0 0.3 0.3 0.1 0.2 0.3 0.5l5.5 15.5q0.4 0.8 0.8 1.5 0.5 0.6 1.6 0.8 0.3 0 0.5 0.1 0.3 0.2 0.3 0.5 0 0.3-0.2 0.4-0.2 0.1-0.5 0.1-1.2 0-2.4 0-1.2-0.1-2.2-0.1-0.7 0-1.6 0.1-0.8 0-1.7 0.1-0.9 0.1-1.7 0.1zm-4.6-7.6h4.4q0.2 0 0.3-0.1 0.1-0.1 0-0.4-0.1-0.6-0.4-1.4-0.3-0.9-0.7-1.7-0.3-1-0.6-1.9-0.3-0.8-0.5-1.5-0.2-0.3-0.2-0.3-0.1 0-0.3 0.3-0.5 1.4-1.2 3.1-0.6 1.8-1.2 3.4-0.1 0.2-0.1 0.3 0.1 0.2 0.5 0.2zm17.8 7.6q-0.3 0-0.6-0.2-0.3-0.2-0.3-0.4 0-0.3 0.3-0.5 0.3-0.2 0.6-0.2 1-0.2 1.6-0.6 0.5-0.4 0.5-1.3v-12.4q0-1.1-0.4-1.6-0.4-0.5-1.6-0.7-0.3-0.1-0.6-0.3-0.2-0.2-0.2-0.5 0-0.2 0.2-0.4 0.3-0.1 0.5-0.1 0.8 0 1.5 0 0.9 0.1 1.7 0.1 0.8 0.1 1.3 0.1 0.5 0 1.3-0.1 1 0 1.9-0.1 0.9-0.1 1.5-0.1 3.8 0 6.5 0.9 2.8 0.8 4.2 2.8 1.6 2 1.6 5.6 0 3.2-1.8 5.4-1.6 2.2-4.4 3.4-2.8 1.2-6.2 1.2-0.7 0-1.6-0.1-0.9-0.1-1.7-0.1-0.9 0-1.6 0-0.6 0-1.3 0-0.8 0-1.6 0.1-0.7 0.1-1.3 0.1zm9.9-1.5q1.9 0 3.2-1 1.3-1 1.9-2.7 0.7-1.8 0.7-3.9 0-2.6-0.7-4.5-0.6-2-2-3.1-1.4-1.1-3.6-1.1-0.8 0-1.4 0.5-0.6 0.6-0.6 1.4v12q0 1.1 0.6 1.8 0.6 0.6 1.9 0.6z"/><path fill-rule="evenodd" d="m268.1 264.8q-0.7 0-0.9-0.7-0.3-0.7-0.8-1.9-0.5-1.2-0.9-2.2l-10.1-25.1q-0.5-1.3-1.4-2.3-0.9-1-2.4-1.4-0.6-0.2-1.1-0.4-0.3-0.3-0.3-0.7 0-0.4 0.3-0.5 0.4-0.3 0.9-0.3 1 0 2.3 0.1 1.3 0 2.6 0.1 1.3 0 2.4 0.1 1.1-0.1 2.5-0.1 1.4-0.1 2.6-0.1 1.4-0.1 2.3-0.1 0.5 0 1 0.3 0.4 0.1 0.4 0.5 0 0.4-0.4 0.7-0.5 0.3-1.2 0.4-1.5 0.3-2.4 0.7-0.8 0.5-0.8 1.4 0 0.5 0.2 1 0.1 0.4 0.2 0.8l7.1 19.5q0.2 0.3 0.3 0.3 0.1 0.1 0.3-0.3l6.5-17.2q1.1-2.8 0.3-4.3-0.7-1.6-2.8-1.9-0.7-0.1-1.2-0.4-0.5-0.3-0.5-0.7 0-0.4 0.5-0.5 0.5-0.2 1-0.2 1 0 1.8 0 0.8 0 1.6 0.1 0.8 0 1.8 0 1.5 0 3-0.1 1.5-0.1 2.9-0.1 0.6 0 1.1 0.1 0.5 0.2 0.5 0.6 0 0.5-0.5 0.7-0.4 0.2-1.1 0.4-1.7 0.4-2.9 1.7-1.1 1.3-2 3.3l-8.6 20.9q-0.6 1.4-1.2 2.7-0.5 1.2-1 2.3-0.4 1.2-0.9 2.1-0.2 0.4-0.4 0.5-0.2 0.2-0.6 0.2zm21-0.6q-0.4 0-0.8-0.2-0.4-0.2-0.4-0.5 0-0.8 1.3-1 2.1-0.5 3-1.2 0.9-0.7 0.9-2.4v-24.1q0-1.8-0.8-2.5-0.7-0.7-2.8-1.2-1.3-0.2-1.3-1.1 0-0.3 0.3-0.4 0.4-0.3 0.9-0.3 1.3 0 2.5 0.1 1.2 0 2.3 0.1 1.2 0 2.4 0.1 1.1-0.1 2.2-0.1 1.1-0.1 2.4-0.1 1.2-0.1 2.5-0.1 0.5 0 0.8 0.3 0.3 0.1 0.3 0.5 0 0.4-0.4 0.7-0.3 0.2-0.9 0.3-2.1 0.6-2.9 1.3-0.7 0.8-0.7 2.4v24q0 1.6 0.8 2.4 0.9 0.7 3 1.3 0.6 0.1 1 0.3 0.3 0.2 0.3 0.7 0 0.3-0.3 0.5-0.3 0.2-0.8 0.2-1.3 0-2.6-0.1-1.3 0-2.5-0.1-1.1-0.1-2.2-0.1-1.2 0-2.4 0.1-1.3 0.1-2.5 0.1-1.3 0.1-2.6 0.1zm36.9 0.2q-1.4 0-3.5-0.1-2-0.1-4-0.2-2-0.1-3.4-0.1-1 0-2.1 0-1.1 0.1-2.3 0.1-1.1 0.1-2.5 0.1-0.4 0-0.8-0.2-0.4-0.2-0.4-0.5 0-0.5 0.3-0.7 0.4-0.2 1.1-0.3 2-0.5 2.7-1.2 0.8-0.7 0.8-2.5v-24q0-1.8-0.8-2.5-0.6-0.7-2.7-1.2-0.7-0.1-1.1-0.3-0.3-0.2-0.3-0.7 0-0.4 0.4-0.5 0.4-0.3 0.8-0.3 1.3 0 2.5 0.1 1.1 0 2.3 0.1 1.1 0 2.3 0.1 0.8-0.1 2.1-0.1 1.4-0.1 2.9-0.2 1.6-0.1 3-0.1 1.4-0.1 2.2-0.1 4.5 0 8 1.2 3.6 1.3 6.1 3.6 2.5 2.3 3.8 5.4 1.4 3.1 1.4 6.8 0 3.6-1.4 6.9-1.3 3.3-3.8 5.9-2.4 2.5-5.9 4-3.5 1.5-7.7 1.5zm-0.8-2.5q3.8 0 6.5-1.8 2.7-1.8 4-5.1 1.4-3.3 1.4-7.7 0-3.6-0.9-6.5-0.9-3-2.6-5-1.7-2.1-4-3.2-2.3-1.1-5-1.1-1.9 0-3.2 0.1-1.3 0.1-2 0.7-0.6 0.4-0.6 1.6v23.3q0 1.9 0.8 2.9 0.8 1 2.3 1.5 1.4 0.3 3.3 0.3zm20.3 2.4q-0.6 0-1-0.2-0.5-0.2-0.5-0.6 0-0.5 0.4-0.8 0.4-0.2 1.1-0.4 1.5-0.5 2.6-1.3 1.2-0.9 1.9-2.5 1.3-3.1 2.5-5.9 1.2-3 2.4-5.8 1.1-2.9 2.2-5.9 1.1-2.9 2.3-6.2 0.6-1.7 0.8-2.6 0.2-0.9 0.4-1.3 0.8-0.2 1.5-0.4 0.7-0.2 1.5-0.5 0.7-0.4 1.3-1 0.5-0.6 0.8-0.9 0.1-0.1 0.3-0.1 0.1 0 0.3 0.2 0.2 0.3 0.3 0.7 0.1 0.3 0.2 0.6 1.1 3.8 2.4 7.7 1.2 3.8 2.5 7.6 1.2 3.7 2.3 7.1 1.2 3.4 2.1 6.3 0.5 1.4 1.2 2.2 0.7 0.9 1.6 1.4 0.9 0.4 1.9 0.7 0.7 0.1 1.1 0.4 0.4 0.2 0.4 0.7 0 0.3-0.4 0.5-0.3 0.2-0.9 0.2-0.9 0-2.4-0.1-1.4 0-3-0.1-1.5-0.1-2.7-0.1-1.1 0-2.4 0-1.3 0.1-2.6 0.2-1.3 0-2.2 0-0.5 0-0.9-0.2-0.4-0.2-0.4-0.5 0-0.5 0.4-0.7 0.4-0.3 1-0.4 1.9-0.4 2.8-1 0.8-0.7 0.6-2-0.1-0.9-0.5-2.1-0.3-1.3-0.6-2.6-0.4-1.4-0.7-2.5-0.1-0.4-0.4-0.6-0.2-0.2-0.7-0.2h-9.6q-0.4 0-0.6 0.3-0.2 0.2-0.3 0.7-0.2 0.7-0.5 1.6-0.3 0.8-0.6 1.8-0.3 0.9-0.5 1.7-0.2 0.8-0.4 1.4-0.2 1.4 0.5 2.2 0.8 0.8 2.7 1.3 1.5 0.4 1.5 1.1 0 0.3-0.4 0.5-0.3 0.2-1 0.2-1.2 0-2.5-0.1-1.3-0.1-2.9-0.1-1.6 0-3.2 0.2-1.4 0.2-3 0.2zm12.6-15.4h7.4q0.8 0 0.8-0.3 0-0.2-0.1-0.3 0-0.1-0.1-0.3l-3.7-12.2q-0.2-0.8-0.3-0.8-0.1 0-0.4 0.7l-4.5 12.3q-0.1 0.3-0.1 0.4 0 0.3 0.3 0.4 0.3 0.1 0.7 0.1zm-161.6 84.8q-4 0-7.6-1.2-3.5-1.2-6.3-3.6-2.7-2.3-4.3-5.5-1.5-3.3-1.5-7.3 0-3.7 1.5-7 1.6-3.3 4.4-5.8 2.8-2.6 6.7-4 3.9-1.5 8.6-1.5 1.8 0 3.3 0.3 1.7 0.2 3.2 0.6 1.6 0.3 3 0.8 0.6 0.2 1 0.6 0.3 0.4 0.4 1 0.2 1.6 0.3 3.2 0.1 1.5 0.1 3 0.1 0.6-0.4 0.8-0.4 0.3-0.9 0.1-0.5-0.2-0.7-0.8-0.4-1.5-1-2.8-0.5-1.3-1.6-2.2-1.2-1-3.1-1.6-1.8-0.6-4.3-0.6-2.9 0-5.2 1.2-2.4 1.1-4.1 3.2-1.6 2.1-2.5 4.7-0.9 2.6-0.9 5.4 0 3.4 0.8 6.4 0.8 3 2.5 5.4 1.7 2.3 4.1 3.6 2.4 1.3 5.4 1.3 3.9 0 6.4-1.7 2.4-1.7 4.1-5.1 0.4-0.8 1.2-0.8 0.7 0 0.7 0.9 0 0.6-0.1 1.6-0.2 0.9-0.5 2-0.3 1.1-0.6 2.2-0.3 0.6-0.6 0.9-0.3 0.3-0.9 0.6-2 0.8-4.8 1.3-2.7 0.4-5.8 0.4zm50.1 0.4q-2.3 0-4-0.5-1.7-0.5-2.9-1.4-1.2-1-2.2-2.3-1.2-1.6-2.3-3-1.1-1.6-2.3-3.4-1.1-1.8-2.5-4.4-0.6-1.2-1.7-1.8-0.7-0.4-1.4-0.5-0.7-0.2-1.2-0.2-0.3 0-0.5 0.3-0.1 0.3-0.1 0.8v9.8q0 1.7 0.8 2.6 0.9 0.9 3 1.4 0.7 0.1 1 0.3 0.4 0.2 0.4 0.7 0 0.3-0.4 0.5-0.2 0.2-0.8 0.2-1.2 0-2.5-0.1-1.3-0.1-2.5-0.2-1.2 0-2.2 0-1.2 0-2.5 0-1.2 0.1-2.4 0.2-1.3 0.1-2.6 0.1-0.5 0-0.8-0.2-0.4-0.2-0.4-0.5 0-0.8 1.3-1 2-0.5 2.9-1.2 0.8-0.7 0.8-2.5v-23.4q0-1.6-0.2-2.4-0.3-0.8-0.9-1.2-0.7-0.4-2.1-0.7-0.7-0.1-1.1-0.4-0.3-0.3-0.3-0.6 0-0.4 0.3-0.5 0.4-0.3 1-0.3 1.6 0 2.5 0.1 1 0 1.8 0.2 0.9 0 2.2 0 1.1 0 2-0.1 0.9-0.1 2-0.2 1.1-0.1 2.9-0.1 6.1 0 9.3 2.1 3.3 2.1 3.3 6.5 0 2.3-1.1 4-1 1.7-2.5 2.7-1.5 1.1-3.1 1.7-0.2 0-0.2 0.3 0.1 0.2 0.2 0.3 1.6 2.5 3.1 4.7 1.5 2.2 3.2 4.1 1.7 2 3.6 3.8 1.7 1.5 3.4 1.8 1.7 0.3 3.6 0.3 0.8 0 0.8 0.8 0 1.1-0.8 1.7-0.8 0.6-2.1 0.8-1.3 0.3-2.8 0.3zm-18.9-19q2.2 0 3.6-1 1.5-1 2.3-2.6 0.8-1.7 0.8-3.7 0-2.4-0.6-4-0.6-1.7-2-2.6-1.4-1-3.8-1-1.4 0-2 1.1-0.4 0.9-0.5 3.9 0 1.2 0 3.2 0 2 0 4.7 0 1.2 0.5 1.6 0.7 0.4 1.7 0.4zm26.4 18.1q-0.4 0-0.8-0.2-0.4-0.2-0.4-0.5 0-0.8 1.3-1 2.1-0.5 3-1.2 0.9-0.7 0.9-2.4v-24.1q0-1.8-0.8-2.5-0.7-0.7-2.8-1.2-1.3-0.2-1.3-1.1 0-0.3 0.4-0.4 0.3-0.3 0.8-0.3 1.3 0 2.5 0.1 1.2 0 2.3 0.1 1.2 0 2.4 0.1 1.1-0.1 2.2-0.1 1.2-0.1 2.4-0.1 1.2-0.1 2.5-0.1 0.5 0 0.8 0.3 0.3 0.1 0.3 0.5 0 0.4-0.3 0.7-0.4 0.2-1 0.3-2.1 0.6-2.9 1.3-0.7 0.8-0.7 2.5v23.9q0 1.6 0.8 2.4 1 0.7 3 1.3 0.7 0.1 1 0.3 0.3 0.2 0.3 0.7 0 0.3-0.3 0.5-0.3 0.2-0.8 0.2-1.3 0-2.6-0.1-1.2 0-2.5-0.1-1.1-0.1-2.2-0.1-1.2 0-2.4 0.1-1.2 0.1-2.5 0.1-1.3 0.1-2.6 0.1zm28.2 0.6q-2.3 0-4.4-0.6-2-0.6-3.7-1.7-0.3-0.3-0.6-0.6-0.2-0.3-0.4-0.7-0.4-1.3-0.6-3.2-0.1-1.9-0.1-3.8 0-0.3 0.3-0.5 0.3-0.1 0.7-0.1 0.4 0 0.6 0.1 0.3 0.1 0.4 0.5 1.2 4 3.4 6.2 2.2 2.2 5 2.2 1.8 0 3-0.8 1.2-0.8 1.9-2 0.6-1.3 0.6-2.8 0-1.9-0.7-3.1-0.6-1.2-1.9-2.1-1.4-1-3.4-2.2-2.2-1.2-4.2-2.6-2.1-1.4-3.4-3.4-1.3-1.9-1.3-4.8 0-2.9 1.4-5.2 1.6-2.2 4.3-3.5 2.7-1.3 6.2-1.3 2 0 3.7 0.4 1.7 0.5 2.7 0.9 0.6 0.2 0.8 0.5 0.4 0.3 0.5 1 0.3 1.1 0.6 2.7 0.2 1.5 0.2 3.2 0 0.6-0.9 0.6-0.5 0-0.9-0.2-0.4-0.2-0.5-0.6-1-3-2.7-4.6-1.6-1.6-4-1.6-1.7 0-2.9 0.6-1.1 0.5-1.8 1.7-0.7 1.1-0.7 2.9 0 1.4 0.9 2.5 1 1.2 2.6 2.3 1.7 1.1 3.8 2.4 2.5 1.5 4.2 3.1 1.8 1.4 2.7 3.3 0.9 1.8 0.9 4.3 0 3.5-1.6 5.9-1.5 2.3-4.3 3.5-2.7 1.2-6.4 1.2zm25.4-0.6q-0.6 0-1-0.2-0.4-0.2-0.4-0.5 0-0.4 0.4-0.7 0.4-0.2 1.1-0.3 2-0.5 2.9-1.2 1-0.8 1-2.5v-21.5q0-2.2-0.1-3.3-0.1-1.1-0.3-1.5-0.2-0.4-0.6-0.5-0.5-0.2-1.3-0.2-0.8-0.1-1.5-0.1h-1.7q-1.5 0-2.9 0.8-1.5 0.7-2.3 1.9-0.2 0.3-0.7 0.9-0.4 0.6-0.9 1-0.5 0.5-1 0.5-0.4 0-0.5-0.3-0.1-0.2-0.1-0.5 0-0.7 0.3-1.3 0.9-1.8 1.3-3.1 0.5-1.4 0.6-3.3 0.1-0.8 0.5-1 0.3-0.2 0.7-0.2 0.3 0 0.7 0.6 0.5 0.7 0.9 1.1 0.5 0.5 1.7 0.8 1.2 0.2 2.1 0.2l19.5-0.1q1.5 0 2.5-0.2 1-0.3 1.6-0.5 0.8-0.5 1.3-1 0.4-0.5 1.1-0.5 0.2 0 0.3 0.3 0.2 0.3 0.2 0.7 0 0.3 0 0.6-0.1 0.3-0.2 0.6-0.2 1-0.4 1.8-0.2 0.8-0.4 1.4-0.1 0.7-0.1 1.5v0.9q0 0.8-0.2 1.3-0.2 0.5-0.7 0.5-0.4 0-0.7-0.4-0.3-0.6-0.6-1.6-0.5-1.7-1.6-2.5-1.1-0.9-3.5-0.9h-3.6q-1 0-1.6 0.4-0.5 0.4-0.8 1.6-0.2 1.3-0.2 3.9v21.1q0 1.7 1 2.5 0.9 0.7 3 1.3 0.6 0.1 1 0.3 0.4 0.2 0.4 0.7 0 0.3-0.4 0.5-0.3 0.2-0.8 0.2-1.3 0-2.6-0.1-1.3 0-2.5-0.1-1.2-0.1-2.4-0.1-1.2 0-2.4 0.1-1.3 0.1-2.6 0.1-1.3 0.1-2.5 0.1zm27.4 0q-0.5 0-0.9-0.2-0.3-0.2-0.3-0.5 0-0.8 1.3-1 2-0.5 2.9-1.2 0.9-0.7 0.9-2.4v-24.1q0-1.8-0.7-2.5-0.8-0.7-2.8-1.2-1.4-0.2-1.4-1.1 0-0.3 0.4-0.4 0.4-0.3 0.9-0.3 1.2 0 2.4 0.1 1.3 0 2.4 0.1 1.1 0 2.3 0.1 1.1-0.1 2.2-0.1 1.2-0.1 2.4-0.1 1.2-0.1 2.5-0.1 0.5 0 0.9 0.3 0.3 0.1 0.3 0.5 0 0.4-0.4 0.7-0.3 0.2-0.9 0.3-2.2 0.6-2.9 1.3-0.7 0.8-0.7 2.5v23.9q0 1.6 0.8 2.4 0.9 0.7 2.9 1.3 0.7 0.1 1 0.3 0.4 0.2 0.4 0.7 0 0.3-0.3 0.5-0.3 0.2-0.9 0.2-1.2 0-2.5-0.1-1.3 0-2.5-0.1-1.2-0.1-2.3-0.1-1.2 0-2.4 0.1-1.2 0.1-2.5 0.1-1.2 0.1-2.5 0.1zm18 0.1q-0.6 0-1-0.2-0.4-0.2-0.4-0.6 0-0.5 0.3-0.8 0.4-0.2 1.1-0.4 1.5-0.5 2.6-1.3 1.2-0.9 1.9-2.5 1.3-3.1 2.5-5.9 1.3-3 2.4-5.8 1.1-2.9 2.2-5.9 1.2-2.9 2.3-6.2 0.6-1.7 0.8-2.6 0.2-0.9 0.4-1.3 0.8-0.2 1.5-0.4 0.7-0.2 1.5-0.5 0.8-0.4 1.3-1 0.5-0.6 0.8-0.9 0.1-0.1 0.3-0.1 0.2 0 0.3 0.2 0.2 0.3 0.3 0.7 0.1 0.3 0.2 0.6 1.2 3.8 2.4 7.7 1.2 3.8 2.5 7.6 1.2 3.7 2.3 7.1 1.2 3.4 2.1 6.3 0.5 1.4 1.2 2.2 0.7 0.9 1.6 1.4 0.9 0.4 1.9 0.7 0.7 0.1 1.1 0.4 0.4 0.2 0.4 0.7 0 0.3-0.4 0.5-0.3 0.2-0.9 0.2-0.9 0-2.4-0.1-1.4 0-3-0.1-1.5-0.1-2.7-0.1-1.1 0-2.4 0-1.3 0.1-2.6 0.2-1.3 0-2.2 0-0.5 0-0.9-0.2-0.4-0.2-0.4-0.5 0-0.5 0.4-0.7 0.5-0.3 1-0.4 1.9-0.4 2.8-1 0.8-0.7 0.6-2-0.1-0.9-0.5-2.1-0.3-1.3-0.6-2.6-0.4-1.4-0.7-2.5-0.1-0.4-0.3-0.6-0.3-0.2-0.8-0.2h-9.6q-0.4 0-0.6 0.3-0.2 0.2-0.3 0.7-0.2 0.7-0.5 1.6-0.3 0.8-0.6 1.8-0.3 0.9-0.5 1.7-0.2 0.8-0.3 1.4-0.3 1.4 0.4 2.2 0.8 0.8 2.7 1.3 1.5 0.4 1.5 1.1 0 0.3-0.4 0.5-0.3 0.2-1 0.2-1.2 0-2.5-0.1-1.3-0.1-2.9-0.1-1.6 0-3.1 0.2-1.5 0.2-3.1 0.2zm12.6-15.4h7.4q0.8 0 0.8-0.3 0-0.2-0.1-0.3 0-0.1 0-0.3l-3.8-12.2q-0.2-0.8-0.3-0.8-0.1 0-0.4 0.7l-4.5 12.3q-0.1 0.3-0.1 0.4 0 0.3 0.3 0.4 0.3 0.1 0.7 0.1zm59.3 16.1q-0.7 0-2.2-0.8-1.4-0.8-3-2.8-0.9-1-2.2-2.4-1.3-1.5-2.9-3.3-1.5-1.7-3.2-3.6-1.7-1.9-3.4-3.8-1.6-1.9-3.2-3.7-1.6-1.7-2.9-3.2-1.4-1.5-2.3-2.5-0.2-0.3-0.4-0.4-0.3-0.3-0.4-0.3-0.2 0-0.3 0.4-0.1 0.4-0.1 0.7 0 2.4 0 5.8 0 3.3 0 6.8 0 3.4 0 6.3 0 1.7 1 2.7 0.9 1.1 3 1.6 0.6 0.1 1 0.3 0.5 0.2 0.5 0.7 0 0.3-0.4 0.5-0.4 0.2-1 0.2-1.4 0-2.2-0.1-0.9 0-1.6-0.1-0.7-0.1-1.7-0.1-1.1 0-2 0.1-0.9 0.1-1.6 0.1-0.7 0.1-1.3 0.1-0.5 0-1-0.2-0.4-0.2-0.4-0.5 0-0.4 0.4-0.6 0.4-0.3 1.1-0.5 1.4-0.4 2-1.5 0.7-1.2 0.9-2.8 0.2-2 0.4-5.2 0.2-3.3 0.4-7.4 0.2-4.1 0.2-8.4 0-2.8-1.5-4-1.3-1.2-3.5-2-0.3-0.1-0.9-0.4-0.6-0.3-0.6-0.8 0-0.5 0.4-0.6 0.5-0.2 0.9-0.2 1.2 0 2.3 0.1 1.1 0 2.2 0.1 1.2 0 2.4 0 1.2 0.1 2.7 0.1 0.5 0 0.7 0.2 0.2 0.2 0.4 0.5 0.9 1 2.2 2.5 1.3 1.5 2.9 3.4 1.6 1.8 3.3 3.8 1.7 2 3.4 4 1.8 2 3.3 3.9 1.6 1.8 2.9 3.3 1.3 1.5 2.2 2.5 0.2 0.2 0.5 0.5 0.3 0.3 0.5 0.3 0.4 0 0.5-0.9 0-1.4 0-3.5 0-2.2 0-4.8 0-2.6 0-5.4 0-2.7-0.1-5.3 0-1.3-1.1-2-1-0.8-2.5-1.2-0.7-0.1-1.3-0.3-0.5-0.3-0.5-0.8 0-0.3 0.5-0.5 0.6-0.2 1.1-0.2 1.1 0 1.7 0 0.8 0 1.4 0.1 0.7 0 1.4 0 1.1 0 1.9 0 0.7-0.1 1.5-0.1 1-0.1 2.4-0.1 0.6 0 1 0.3 0.4 0.1 0.4 0.4 0 0.8-1.5 1.1-1.9 0.4-2.7 1-0.7 0.7-0.8 2.2 0 1.3 0 3.4 0 2-0.1 4.5 0 2.4-0.1 4.9-0.1 2.6-0.1 5 0 2.5 0 4.4 0 1.3 0.1 2.6 0.1 1.3 0.2 2.4 0.1 1 0.1 1.4 0 1.2-0.3 1.6-0.4 0.5-1 0.5zm7.6-0.7q-0.7 0-1.1-0.2-0.4-0.2-0.4-0.6 0-0.5 0.4-0.8 0.4-0.2 1-0.4 1.6-0.5 2.7-1.3 1.1-0.9 1.8-2.5 1.4-3.1 2.6-5.9 1.2-3 2.3-5.8 1.1-2.9 2.2-5.9 1.2-2.9 2.4-6.2 0.6-1.7 0.8-2.6 0.2-0.9 0.3-1.3 0.8-0.2 1.5-0.4 0.7-0.2 1.6-0.5 0.7-0.4 1.2-1 0.6-0.6 0.8-0.9 0.2-0.1 0.3-0.1 0.2 0 0.4 0.2 0.1 0.3 0.2 0.7 0.1 0.3 0.2 0.6 1.2 3.8 2.4 7.7 1.3 3.8 2.5 7.6 1.2 3.7 2.3 7.1 1.2 3.4 2.2 6.3 0.4 1.4 1.1 2.2 0.8 0.9 1.6 1.4 0.9 0.4 2 0.7 0.7 0.1 1 0.4 0.4 0.2 0.4 0.7 0 0.3-0.4 0.5-0.3 0.2-0.8 0.2-1 0-2.4-0.1-1.5 0-3-0.1-1.5-0.1-2.8-0.1-1 0-2.4 0-1.2 0.1-2.5 0.2-1.3 0-2.2 0-0.6 0-1-0.2-0.3-0.2-0.3-0.5 0-0.5 0.4-0.7 0.4-0.3 1-0.4 1.9-0.4 2.7-1 0.9-0.7 0.7-2-0.2-0.9-0.5-2.1-0.3-1.3-0.7-2.6-0.3-1.4-0.7-2.5-0.1-0.4-0.3-0.6-0.2-0.2-0.8-0.2h-9.5q-0.4 0-0.6 0.3-0.2 0.2-0.3 0.7-0.2 0.7-0.6 1.6-0.2 0.8-0.5 1.8-0.3 0.9-0.6 1.7-0.2 0.8-0.3 1.4-0.3 1.4 0.5 2.2 0.8 0.8 2.7 1.3 1.4 0.4 1.4 1.1 0 0.3-0.4 0.5-0.3 0.2-0.9 0.2-1.2 0-2.6-0.1-1.3-0.1-2.9-0.1-1.6 0-3.1 0.2-1.5 0.2-3 0.2zm12.6-15.4h7.4q0.7 0 0.7-0.3 0-0.2 0-0.3 0-0.1-0.1-0.3l-3.7-12.2q-0.2-0.8-0.4-0.8-0.1 0-0.4 0.7l-4.4 12.3q-0.1 0.3-0.1 0.4 0 0.3 0.3 0.4 0.3 0.1 0.7 0.1z"/></svg>